<svg xmlns="http://www.w3.org/2000/svg" width="39" height="38.982" viewBox="-0.033 3800.328 39 38.982"><path fill="#FFF" d="M26.592 3816.39l-.024-.057a.454.454 0 0 0-.041-.098.359.359 0 0 0-.048-.057c-.017-.024-.033-.049-.057-.073-.016-.017-.041-.033-.057-.049-.024-.017-.041-.033-.065-.049l-6.5-3.9a.652.652 0 0 0-.666 0l-6.5 3.9c-.024.016-.048.032-.065.049-.024.016-.041.032-.065.049-.016.024-.041.049-.057.073-.017.016-.033.04-.049.057-.016.032-.024.065-.041.089a.593.593 0 0 0-.048.236v6.5c0 .227.122.439.317.561l6.5 3.9h.008l.008.008a.514.514 0 0 0 .106.041.113.113 0 0 0 .049.016.6.6 0 0 0 .341 0c.017-.008.033-.016.049-.016a.384.384 0 0 0 .106-.041l.008-.008h.008l6.5-3.9a.645.645 0 0 0 .317-.561v-6.5c-.01-.057-.018-.114-.034-.17zm-7.125-2.974l1.982 1.194-5.232 3.145-1.982-1.194 5.232-3.145zm-.65 12.398l-5.2-3.12v-4.988l5.2 3.12v4.988zm.65-6.109l-1.982-1.194 5.232-3.144 1.982 1.194-5.232 3.144zm5.849 2.989l-5.2 3.12v-4.98l5.2-3.12v4.98zm-5.329-22.123a.68.68 0 0 0-1.04 0l-1.95 2.6 1.04.78.78-1.04v5.199h1.3v-5.199l.78 1.04 1.04-.78-1.95-2.6zm.909 35.098l-.78 1.04v-5.199h-1.3v5.199l-.78-1.04-1.04.78 1.95 2.6a.65.65 0 0 0 .91.13 1.14 1.14 0 0 0 .13-.13l1.95-2.6-1.04-.78zm-2.079-26.258h1.3v1.3h-1.3zm0 19.498h1.3v1.3h-1.3zm-11.05-9.749h-5.2l1.04-.78-.78-1.04-2.6 1.95a.65.65 0 0 0 0 1.04l2.6 1.95.78-1.04-1.04-.78h5.2v-1.3zm31.069.26a1.064 1.064 0 0 0-.13-.13l-2.6-1.95-.78 1.04 1.04.78h-5.2v1.3h5.2l-1.04.78.78 1.04 2.6-1.95a.65.65 0 0 0 .13-.91zm-29.769-.26h1.3v1.3h-1.3zm19.499 0h1.3v1.3h-1.3zm-16.915-8.084l-3.672-3.672 1.284.187.187-1.284-3.217-.463a.656.656 0 0 0-.739.544.73.73 0 0 0 0 .187l.463 3.217 1.284-.187-.187-1.283 3.672 3.672.925-.918zm21.79 21.969l-.463-3.217-1.292.187.187 1.284-3.672-3.672-.918.918 3.672 3.672-1.284-.187-.187 1.284 3.217.463a.652.652 0 0 0 .739-.641c.009-.026.001-.058.001-.091zm-19.924-20.097l-.919.92-.919-.92.92-.919zm13.793 13.782l-.918.919-.92-.92.92-.918zm-19.331 5.486l3.672-3.672-.918-.918-3.672 3.672.187-1.284-1.284-.187-.471 3.217a.656.656 0 0 0 .641.747c.033 0 .065 0 .089-.008l3.217-.463-.187-1.284-1.274.18zm25.275-26.194a.667.667 0 0 0-.553-.187l-3.217.463.187 1.284 1.284-.187-3.672 3.673.918.918 3.672-3.673-.187 1.284 1.284.187.471-3.209a.668.668 0 0 0-.187-.553zm-19.731 20.708l-.92.92-.918-.92.919-.919zm13.737-13.747l-.919.92-.92-.92.92-.919z"/></svg>