<svg xmlns="http://www.w3.org/2000/svg" width="31" height="33.813" viewBox="58.333 3800 31 33.813"><path fill="#FFF" d="M83.242 3814.089l5.974-8.679a.663.663 0 0 0 .056-.563c-.113-.226-.282-.338-.507-.338H71.858v-2.255c0-.338-.225-.563-.563-.563H59.46v-1.127c0-.338-.225-.563-.563-.563-.338 0-.563.226-.563.563v32.685c0 .338.226.563.563.563.338 0 .563-.225.563-.563v-14.088h6.199a2.9 2.9 0 0 0-.563 1.691 2.79 2.79 0 0 0 2.817 2.817h20.851a.59.59 0 0 0 .507-.282c.113-.169.057-.395-.056-.563l-5.973-8.735zm-23.782-11.271h11.271v15.215H59.46v-15.215zm8.454 19.724c-.958 0-1.69-.732-1.69-1.69s.732-1.691 1.69-1.691h3.381c.338 0 .563-.226.563-.564v-12.961h15.836l-5.579 8.115a.61.61 0 0 0 0 .62l5.579 8.172h-19.78z"/></svg>