<svg xmlns="http://www.w3.org/2000/svg" width="40" height="40" viewBox="0 3800 40 40"><g fill="#FFF"><path d="M20 3840c-11.03 0-20-8.97-20-20s8.97-20 20-20 20 8.97 20 20-8.97 20-20 20zm0-38.788c-10.303 0-18.788 8.485-18.788 18.788s8.485 18.788 18.788 18.788 18.788-8.485 18.788-18.788-8.485-18.788-18.788-18.788z"/><path d="M20 3829.212c-2.909 0-5.818-.849-8.364-2.424l-.485-.243c-.242-.122-.363-.606-.242-.849s.606-.364.849-.243l.484.243a14.668 14.668 0 0 0 15.394 0l.485-.243a.64.64 0 0 1 .849.243.64.64 0 0 1-.243.849l-.485.243c-2.424 1.575-5.333 2.424-8.242 2.424zm-2.909-13.091c-.121 0-.364 0-.485-.121l-2.424-2.424-2.424 2.424a.587.587 0 0 1-.849 0 .586.586 0 0 1 0-.849l2.788-2.788a.587.587 0 0 1 .849 0l2.788 2.788a.587.587 0 0 1 0 .849c.121.121-.001.121-.243.121zm11.394 0c-.121 0-.364 0-.485-.121l-2.424-2.424-2.425 2.424a.586.586 0 0 1-.848 0 .586.586 0 0 1 0-.849l2.788-2.788a.587.587 0 0 1 .849 0l2.788 2.788a.586.586 0 0 1 0 .849c.121.121-.122.121-.243.121z"/></g></svg>