<svg xmlns="http://www.w3.org/2000/svg" width="45" height="33.807" viewBox="0.549 3974.033 45 33.807"><path d="M27.626 3977.948l5.407 7.084h-2.61a.756.756 0 0 0-.746.746c0 .435.311.746.746.746h4.972v-4.972a.756.756 0 0 0-.746-.746.756.756 0 0 0-.746.746v2.299l-5.22-6.774c-1.492-1.988-3.542-3.045-5.717-3.045s-4.226 1.119-5.717 3.045l-5.655 7.396a.699.699 0 0 0 .125.994c.124.124.311.124.435.124a.65.65 0 0 0 .559-.311l5.655-7.395c1.243-1.616 2.858-2.486 4.599-2.486 1.801.064 3.416.934 4.659 2.549zm-8.017 25.48H6.062c-1.926 0-3.355-.56-3.853-1.554-.497-.995-.124-2.486 1.057-3.978l5.904-7.768c0-.063.062-.063.062-.125v2.673c0 .373.311.745.746.745a.756.756 0 0 0 .746-.745v-4.972H5.751a.756.756 0 0 0-.746.746c0 .373.311.746.746.746h2.361s-.062 0-.062.063l-5.904 7.644c-1.554 2.051-1.989 3.977-1.243 5.531.746 1.553 2.61 2.362 5.158 2.362h13.547c.373 0 .746-.311.746-.746s-.372-.622-.745-.622zm-10.378-14.294v.187c-.062-.062-.062-.125-.125-.187h.125zm34.739 7.768l-5.903-7.706a.7.7 0 0 0-.995-.124.7.7 0 0 0-.124.994l5.841 7.768c1.181 1.553 1.554 2.983 1.057 3.977s-1.926 1.554-3.853 1.554H26.321l1.74-1.74c.311-.311.311-.746 0-1.056-.311-.311-.746-.311-1.057 0l-3.48 3.604 3.48 3.48a.71.71 0 0 0 .498.187.707.707 0 0 0 .497-.187c.311-.311.311-.746 0-1.057l-1.864-1.864c.062.063.187.063.311.063h13.547c2.548 0 4.35-.87 5.158-2.362.807-1.492.372-3.48-1.181-5.531zm-18.395 7.271l.187-.187v.125c0 .124 0 .186.062.311l-.249-.249z" fill="#FFF"/></svg>