<svg xmlns="http://www.w3.org/2000/svg" width="60" height="51.289" viewBox="100 72.581 60 51.289"><path d="M113.551 87.426V87.1h-1.936v.327c0 .557.012 1.113.048 1.658l1.936-.097a22.63 22.63 0 0 1-.048-1.562zm.194 3.436l-1.924.218a32.392 32.392 0 0 0 4.913 13.781l1.633-1.053a30.306 30.306 0 0 1-4.622-12.946zm21.936-13.236c-1.682 1.137-3.642 1.73-5.675 1.73s-3.993-.593-5.674-1.73l-1.089 1.609a12.056 12.056 0 0 0 6.751 2.057c2.419 0 4.755-.714 6.751-2.057l-1.064-1.609zm-26.97 27.864h-1.936a6.78 6.78 0 0 1-6.775 6.776v1.936a6.78 6.78 0 0 1 6.775 6.776h1.936a6.78 6.78 0 0 1 6.775-6.776v-1.936a6.78 6.78 0 0 1-6.775-6.776zm-.967 11.519a8.755 8.755 0 0 0-3.775-3.775 8.755 8.755 0 0 0 3.775-3.775 8.745 8.745 0 0 0 3.775 3.775 8.745 8.745 0 0 0-3.775 3.775z"/><path d="M153.236 80.324h-1.851c-1.839-4.562-6.316-7.744-11.41-7.744-2.396 0-4.658.653-6.533 1.875a6.292 6.292 0 0 1-6.885 0c-1.863-1.222-4.125-1.875-6.533-1.875-6.764 0-12.281 5.517-12.281 12.293v2.553a36.024 36.024 0 0 0 5.735 19.528 34.168 34.168 0 0 1 4.404 10.188l1.052 4.21a3.315 3.315 0 0 0 3.23 2.517 3.301 3.301 0 0 0 3.291-2.831l2.166-14.483c.182-1.186 1.173-2.045 2.383-2.045s2.202.859 2.372 2.045l2.166 14.483a3.3 3.3 0 0 0 3.291 2.831 3.34 3.34 0 0 0 3.231-2.517l1.052-4.21a34.395 34.395 0 0 1 4.404-10.188 36.52 36.52 0 0 0 4.767-11.24v.097h1.936a6.78 6.78 0 0 1 6.775-6.775V87.1c-3.725 0-6.762-3.037-6.762-6.776zm-8.336 25.578a36.082 36.082 0 0 0-4.658 10.768l-1.053 4.21a1.395 1.395 0 0 1-1.343 1.053 1.392 1.392 0 0 1-1.379-1.186l-2.166-14.483a4.315 4.315 0 0 0-4.295-3.69 4.315 4.315 0 0 0-4.295 3.69l-2.166 14.483a1.375 1.375 0 0 1-1.379 1.186 1.399 1.399 0 0 1-1.355-1.053l-1.053-4.21a36.108 36.108 0 0 0-4.658-10.768 34.11 34.11 0 0 1-5.42-18.476v-2.553c0-5.711 4.646-10.357 10.357-10.357 2.021 0 3.908.544 5.469 1.561a8.012 8.012 0 0 0 4.5 1.343 8.021 8.021 0 0 0 4.501-1.343c1.549-1.016 3.448-1.561 5.469-1.561 5.106 0 9.51 3.799 10.236 8.772l.036.629a6.718 6.718 0 0 1-5.723 3.182v1.936a6.763 6.763 0 0 1 5.518 2.855 34.338 34.338 0 0 1-5.143 14.012zm7.369-14.059a8.75 8.75 0 0 0-3.775-3.775 8.745 8.745 0 0 0 3.775-3.775 8.75 8.75 0 0 0 3.775 3.775 8.74 8.74 0 0 0-3.775 3.775z"/></svg>