<svg xmlns="http://www.w3.org/2000/svg" width="60" height="60.015" viewBox="100 -0.046 60 60.015"><path d="M158.593 51.272a9.843 9.843 0 0 0-9.74-7.302h-.105l-.129-.598a3.328 3.328 0 0 0-3.422-2.403h-6.177v-3.071a7.997 7.997 0 0 0 6.997-7.935V25.38c.598-.668 1.688-2.297 2.954-6.095 1.09-3.258 1.066-6.529-.059-8.767a14.155 14.155 0 0 0-2.543-3.376 9.483 9.483 0 0 1-2.403-3.493.997.997 0 0 0-.95-.68 4.691 4.691 0 0 0-2.637.973 4.865 4.865 0 0 0-4.372-1.981A7.776 7.776 0 0 1 130.709.25a1.002 1.002 0 0 0-1.02-.246 23.84 23.84 0 0 1-6.681.95 6.192 6.192 0 0 0-5.321 2.508 3.578 3.578 0 0 0-1.688-.504.996.996 0 0 0-.996.997c0 1.301-.586 1.829-1.559 2.696a9.473 9.473 0 0 0-2.344 2.848c-1.02 2.075-2.191 4.419-.023 9.834a29.726 29.726 0 0 0 2.931 5.978v4.653c.012 4.032 3 7.431 6.997 7.935v3.071h-6.165a3.34 3.34 0 0 0-3.422 2.391l-.129.609h-.118a9.824 9.824 0 0 0-9.716 7.22l-.95 2.848a16.259 16.259 0 0 0-.504 4.044v.891c0 .551.445.996.996.996h58.008a.995.995 0 0 0 .996-.996v-.891c0-1.395-.176-2.778-.516-4.114l-.892-2.696zm-41.586-35.315V11.96h6.294a6.84 6.84 0 0 0 0 3.997h-6.294zm7.994-1.993c0-2.766 2.239-5.005 5.005-5.005s5.005 2.239 5.005 5.005-2.239 5.005-5.005 5.005a5.026 5.026 0 0 1-5.005-5.005zm11.709-2.005h6.294v3.997h-6.294a6.823 6.823 0 0 0 0-3.997zm-23.817-1.547a7.47 7.47 0 0 1 1.887-2.262 5.907 5.907 0 0 0 2.051-2.86c.164.105.316.235.457.375a.995.995 0 0 0 1.653-.387c.012-.023.809-2.321 4.055-2.321 2.286 0 4.56-.305 6.775-.891a10.265 10.265 0 0 0 6.224 1.887c2.802 0 2.989 1.676 3.001 2.004 0 .469.316.867.773.973s.914-.105 1.125-.527a2.553 2.553 0 0 1 1.477-1.313 12.646 12.646 0 0 0 2.52 3.411 12.141 12.141 0 0 1 2.215 2.907c.867 1.747.855 4.524-.059 7.244a32.058 32.058 0 0 1-1.09 2.848 12.46 12.46 0 0 0-1.137-4.735c.105-.246.164-.516.164-.797v-3.997a2.003 2.003 0 0 0-2.004-2.004h-7.267c-1.301-1.875-3.446-3-5.731-3s-4.431 1.125-5.731 3h-7.267a2.003 2.003 0 0 0-2.004 2.004v3.997c0 .27.059.539.164.785a12.275 12.275 0 0 0-1.113 4.466 55.057 55.057 0 0 1-1.125-2.625c-1.806-4.583-.974-6.26-.013-8.182zm3.106 19.551v-7.841c-.012-1.43.27-2.86.833-4.173.059 0 .117.012.176.012h7.267c1.301 1.875 3.446 3.001 5.731 3.001s4.431-1.125 5.731-3.001h7.267c.059 0 .117-.012.164-.012.551 1.325.844 2.743.833 4.173v7.841A5.997 5.997 0 0 1 138 35.964h-16c-3.305 0-5.989-2.684-6.001-6.001zm7.009 8.005h14.007v3.001h-14.007v-3.001zm6.998 10.761l-4.067-5.767h8.146l-4.079 5.767zm-27.591 5.872l.949-2.848a7.822 7.822 0 0 1 7.466-5.755l-2.637 11.967h-6.188c-.001-1.137.14-2.262.41-3.364zm7.829 3.363l2.778-12.612c.012-.047.023-.094.035-.152l.316-1.441c.27-.551.856-.879 1.465-.797h8.65l5.521 7.818v7.185h-18.765v-.001zm37.765 0h-17.007v-2.719h.997a.995.995 0 1 0 0-1.992h-.997v-2.461l5.521-7.818h8.65a1.424 1.424 0 0 1 1.465.821l3.118 14.182h-1.747v-.013zm3.81 0l-2.625-11.979a7.844 7.844 0 0 1 7.49 5.837l.902 2.696c.281 1.125.422 2.286.434 3.446h-6.201z"/><path d="M125.001 25.966a.995.995 0 0 0 .996-.997v-2.004a.995.995 0 1 0-1.992 0v2.004c0 .54.445.997.996.997zm10.01 0a.995.995 0 0 0 .996-.997v-2.004a.995.995 0 1 0-1.992 0v2.004c-.012.54.445.997.996.997zm-10.01 3.997c0 .117.059 3 5.005 3s5.005-2.883 5.005-3c0-.563-.445-1.02-.996-1.031-.258-.012-.516.094-.704.281s-.293.434-.293.691c-.047.363-.738 1.055-3 1.055s-2.954-.692-3-.997a.995.995 0 0 0-.997-.996 1.01 1.01 0 0 0-1.02.997zm5.005-12.999c1.653 0 3-1.348 3-3s-1.348-3-3-3-3 1.348-3 3 1.347 3 3 3zm0-4.008a.996.996 0 1 1 0 1.991.996.996 0 0 1 0-1.991z"/></svg>