<svg xmlns="http://www.w3.org/2000/svg" width="29" height="59.582" viewBox="355.859 0 29 59.582"><path d="M383.405 3.815h-3.909v-1.43A2.388 2.388 0 0 0 377.112 0h-9.062c-.477 0-.873.396-.873.873s.396.873.873.873h9.062c.349 0 .64.291.64.64v8.026c0 .349-.291.64-.64.64h-2.42l-1.419-3.106a5.382 5.382 0 1 0-10.202 3.106h-1.222a.646.646 0 0 1-.64-.64V2.385c0-.349.291-.64.64-.64h2.117c.477 0 .873-.396.873-.873S364.444 0 363.956 0h-2.117c-.989 0-1.826.605-2.187 1.454h-1.477a2.313 2.313 0 0 0-2.315 2.315v5.258a2.313 2.313 0 0 0 2.315 2.315h1.477a2.39 2.39 0 0 0 2.187 1.454h1.78l5.828 14.832c.186.477.268.977.244 1.489a2.532 2.532 0 0 0-1.536 2.315v1.21c0 .628.233 1.198.617 1.64a2.488 2.488 0 0 0-.617 1.64v1.21c0 .861.442 1.617 1.094 2.07L368.69 52.3a6.954 6.954 0 0 0 1.931 5.13 6.924 6.924 0 0 0 5.037 2.152c1.919 0 3.71-.768 5.037-2.152s2.013-3.211 1.931-5.13l-.57-12.982a2.504 2.504 0 0 0 1.268-2.175v-1.209c0-.628-.232-1.198-.616-1.64a2.487 2.487 0 0 0 .616-1.64v-1.21a2.53 2.53 0 0 0-1.71-2.385l-.093-2.129a5.49 5.49 0 0 0-.489-2.012l-1.978-4.316a.867.867 0 0 0-1.151-.43.868.868 0 0 0-.431 1.151l1.978 4.316c.198.43.303.884.326 1.361l.082 1.931h-8.434c0-.663-.128-1.314-.372-1.931l-6.061-15.483a3.637 3.637 0 0 1 1.873-4.641 3.65 3.65 0 0 1 4.816 1.792l4.118 8.98a.869.869 0 1 0 1.582-.721l-1.896-4.141h1.629a2.388 2.388 0 0 0 2.384-2.385V8.98h3.909c.803 0 1.454-.651 1.454-1.454V5.27a1.456 1.456 0 0 0-1.455-1.455zm-25.801 5.212V3.769c0-.314.256-.57.57-.57h1.291v6.398h-1.291a.571.571 0 0 1-.57-.57zm21.846 47.17a5.214 5.214 0 0 1-3.781 1.617 5.17 5.17 0 0 1-3.78-1.617 5.184 5.184 0 0 1-1.454-3.838l.547-12.726h9.353l.558 12.726a5.156 5.156 0 0 1-1.443 3.838zm-9.55-24.778c0-.418.349-.768.768-.768h10.155c.419 0 .768.349.768.768v1.21a.775.775 0 0 1-.768.768h-10.155a.775.775 0 0 1-.768-.768v-1.21zm0 4.491c0-.418.349-.768.768-.768h10.155c.419 0 .768.349.768.768v1.21a.775.775 0 0 1-.768.768h-10.155a.775.775 0 0 1-.768-.768v-1.21zm13.226-28.675h-3.618V5.549h3.618v1.686z"/><path d="M369.26 8.841a2.8 2.8 0 0 0-2.792 2.792 2.8 2.8 0 0 0 2.792 2.792 2.8 2.8 0 0 0 2.792-2.792c.011-1.536-1.245-2.792-2.792-2.792zm0 3.85a1.05 1.05 0 0 1-1.047-1.047 1.05 1.05 0 0 1 1.047-1.047c.57 0 1.047.477 1.047 1.047.012.57-.465 1.047-1.047 1.047z"/></svg>