<svg xmlns="http://www.w3.org/2000/svg" width="50" height="58.769" viewBox="179.492 5.859 50 58.769"><path d="M204.498 64.628c-2.265 0-8.525-2.938-13.949-8.247-5.041-4.948-11.057-13.577-11.057-26.62V16.986a.91.91 0 0 1 .662-.871c8.443-2.311 16.26-5.633 23.891-10.127a.917.917 0 0 1 .453-.128c.163 0 .325.046.453.128 7.41 4.378 15.679 7.886 23.879 10.127a.896.896 0 0 1 .662.871v12.776c0 13.043-6.016 21.672-11.057 26.62-5.412 5.308-11.672 8.246-13.937 8.246zm-.174-56.713c-7.294 4.239-14.75 7.41-22.776 9.687l-.255.07v12.09c0 12.416 5.726 20.627 10.522 25.331 2.985 2.927 5.912 4.797 7.84 5.854 2.369 1.301 4.135 1.882 4.843 1.882s2.485-.581 4.843-1.882c1.928-1.057 4.854-2.927 7.84-5.854 4.796-4.704 10.522-12.915 10.522-25.331v-12.09l-.255-.07c-7.805-2.23-15.68-5.575-22.776-9.687l-.174-.104-.174.104z"/><path d="M185.346 26.429a.908.908 0 0 1-.906-.906v-4.832c0-.395.255-.743.627-.859 2.3-.72 4.6-1.533 6.841-2.416a.81.81 0 0 1 .325-.058c.372 0 .708.221.836.569a.872.872 0 0 1-.012.685.845.845 0 0 1-.499.477c-1.998.79-4.042 1.521-6.086 2.183l-.244.082v4.169a.873.873 0 0 1-.882.906zm10.441-8.746a.886.886 0 0 1-.825-.546.876.876 0 0 1-.011-.685.952.952 0 0 1 .476-.5l.023-.011a1 1 0 0 1 .36-.082c.36 0 .685.209.825.534a.879.879 0 0 1 .011.686.905.905 0 0 1-.476.499l-.023.012a.664.664 0 0 1-.36.093zm15.459 38.107a.906.906 0 0 1-.546-1.626 32.95 32.95 0 0 0 3.624-3.229 31.069 31.069 0 0 0 3.635-4.542.898.898 0 0 1 .755-.406c.174 0 .349.046.488.151a.95.95 0 0 1 .395.569.864.864 0 0 1-.128.674 32.782 32.782 0 0 1-3.844 4.809 32.27 32.27 0 0 1-3.833 3.403.882.882 0 0 1-.546.197zm-3.113 2.09a.905.905 0 0 1-.453-1.684l.07-.046a.886.886 0 0 1 .453-.128c.325 0 .615.174.778.441a.893.893 0 0 1-.325 1.231l-.081.046a.734.734 0 0 1-.442.14zm-7.654-11.208a3.64 3.64 0 0 1-2.625-1.092l-7.387-7.387a3.722 3.722 0 0 1 2.625-6.353 3.64 3.64 0 0 1 2.625 1.092l4.762 4.75 12.788-12.775a3.709 3.709 0 0 1 2.625-1.092 3.64 3.64 0 0 1 2.625 1.092 3.722 3.722 0 0 1 0 5.261L203.116 45.58a3.689 3.689 0 0 1-2.637 1.092zm-7.386-13.019c-.511 0-.987.197-1.359.557a1.92 1.92 0 0 0 0 2.707l7.387 7.387a1.936 1.936 0 0 0 2.718 0l15.424-15.424a1.921 1.921 0 0 0 0-2.706 1.937 1.937 0 0 0-2.718 0l-13.426 13.438a.888.888 0 0 1-.639.267.888.888 0 0 1-.639-.267l-5.389-5.389a1.876 1.876 0 0 0-1.359-.57z"/></svg>