<svg xmlns="http://www.w3.org/2000/svg" width="52" height="59.088" viewBox="170.293 11.719 52 59.088"><path d="M188.127 70.807V68.68h3.545v-4.963h-6.512V61.59h6.523v-4.963h-9.466V54.5h9.466v-4.963h-12.42V47.41h12.42v-5.164H178.92l-.236-.13a16.213 16.213 0 0 1-8.391-14.406c.059-4.361 1.796-8.414 4.917-11.428a16.075 16.075 0 0 1 11.262-4.562h.331a16.074 16.074 0 0 1 9.076 3.001l.414.295.414-.295a16.2 16.2 0 0 1 9.064-3.001h.331c4.242 0 8.237 1.619 11.274 4.55 3.108 3.014 4.857 7.067 4.916 11.428a16.161 16.161 0 0 1-8.391 14.405l-.236.13h-12.763v5.164h12.42v2.127h-12.42v4.963h9.466v2.127h-9.466v4.963h6.511v2.127h-6.511v4.963h3.545v2.127l-16.32.013zm5.685-2.128h4.963v-4.963h-4.963v4.963zm0-7.09h4.963v-4.963h-4.963v4.963zm0-7.103h4.963v-4.975h-4.963v4.975zm0-7.09h4.963v-5.164h-4.963v5.164zm-7.327-33.55a14.023 14.023 0 0 0-9.797 3.947c-2.706 2.612-4.219 6.145-4.266 9.927a14.14 14.14 0 0 0 6.878 12.278l.165.095h33.645l.166-.095a14.091 14.091 0 0 0 6.877-12.278c-.047-3.793-1.56-7.315-4.266-9.927a13.99 13.99 0 0 0-9.785-3.947h-.284a14.058 14.058 0 0 0-8.84 3.356l-.685.591-.686-.591a14.12 14.12 0 0 0-8.839-3.356h-.283z"/></svg>