<svg xmlns="http://www.w3.org/2000/svg" width="60" height="59.979" viewBox="100 0 60 59.979"><path d="M140.61 35.707a1.031 1.031 0 0 1 .346-1.099l7.609-5.595c1.221-.895 1.689-2.38 1.221-3.825-.468-1.424-1.729-2.36-3.235-2.36l-9.44-.041a.985.985 0 0 1-.936-.671l-2.95-8.973c-.468-1.424-1.75-2.34-3.255-2.36-1.506 0-2.788.916-3.255 2.34l-1.343 4.049a1.248 1.248 0 0 0 .773 1.546 1.247 1.247 0 0 0 1.546-.773l1.343-4.049c.203-.631.773-.672.936-.672.163 0 .732.041.936.672l2.95 8.972a3.453 3.453 0 0 0 3.235 2.36l9.44.041c.651 0 .875.529.936.671a.94.94 0 0 1-.346 1.099l-7.609 5.595a3.442 3.442 0 0 0-1.241 3.805l2.869 8.993c.204.63-.224.997-.366 1.099-.142.102-.61.386-1.16 0l-7.67-5.514a3.455 3.455 0 0 0-4.008 0l-7.67 5.514c-.529.386-1.018.102-1.16 0a.977.977 0 0 1-.366-1.099l2.869-8.993a3.41 3.41 0 0 0-1.241-3.805l-7.528-5.575a.94.94 0 0 1-.346-1.099c.061-.163.265-.671.936-.671l9.44-.041c.671 0 1.221-.549 1.221-1.221s-.549-1.221-1.221-1.221l-9.44.041c-1.505 0-2.767.936-3.235 2.36s.021 2.93 1.221 3.825l7.609 5.595a.956.956 0 0 1 .346 1.099L116.5 44.72c-.468 1.424.041 2.93 1.241 3.805a3.37 3.37 0 0 0 2.014.671c.692 0 1.383-.224 1.994-.651l7.67-5.514a.98.98 0 0 1 1.14 0l7.67 5.514a3.388 3.388 0 0 0 4.008 0 3.339 3.339 0 0 0 1.241-3.805l-2.868-9.033z"/><path d="M129.99 0C113.449 0 100 13.449 100 29.99c0 16.542 13.449 29.99 29.99 29.99.671 0 1.221-.549 1.221-1.221s-.549-1.221-1.221-1.221c-15.178 0-27.548-12.35-27.548-27.548 0-15.198 12.371-27.548 27.548-27.548 15.178 0 27.548 12.371 27.548 27.548 0 9.461-4.761 18.148-12.736 23.235-.57.367-.732 1.119-.366 1.689s1.119.732 1.688.366C154.812 49.725 160 40.285 160 29.99 159.979 13.449 146.531 0 129.99 0z"/></svg>