<svg xmlns="http://www.w3.org/2000/svg" width="60" height="60.2" viewBox="102.015 -0.069 60 60.2"><path d="M161.524 41.271l-2.438-2.874V8.181c0-3.204-1.578-5.937-4.229-7.327-2.697-1.414-5.972-1.189-8.529.577-.93.648-1.802 1.567-2.45 2.568a6.756 6.756 0 0 0-6.42 4.241 1.156 1.156 0 0 0 .694 1.519l10.579 3.675c.118.047.248.059.377.059.188 0 .365-.047.53-.129.283-.142.495-.401.577-.707a6.753 6.753 0 0 0-1.484-6.456c.495-.495 1.143-.883 1.944-.978.895-.094 1.649.106 2.203.601s.86 1.284.86 2.203v14.631c0 .483.401.883.884.883s.883-.4.883-.883V8.051c0-1.425-.518-2.674-1.449-3.51-.919-.825-2.191-1.19-3.581-1.037-1.178.13-2.274.707-3.099 1.59a6.723 6.723 0 0 0-1.437-.695c-.047-.012-.094-.035-.141-.047a7.324 7.324 0 0 1 1.52-1.449c2.014-1.402 4.583-1.579 6.703-.459 2.085 1.096 3.287 3.192 3.287 5.761v28.131l-1.791-2.109v-7.433c0-.483-.4-.884-.883-.884s-.884.401-.884.884v5.348l-2.897-3.428a2.074 2.074 0 0 0-1.59-.73h-8.93a5.803 5.803 0 0 0 1.638-4.041v-.742c0-.66-.53-1.19-1.19-1.19h-4.335v-1.496c0-.813-.66-1.473-1.473-1.473h-.601v-3.911c0-1.861-1.52-3.381-3.381-3.381s-3.381 1.52-3.381 3.381v.672c0 .483.4.883.883.883s.884-.4.884-.883v-.672c0-.895.73-1.614 1.614-1.614.895 0 1.614.73 1.614 1.614v3.888h-.601c-.813 0-1.473.66-1.473 1.473v1.496h-4.335c-.66 0-1.19.53-1.19 1.189v.742c0 1.567.625 2.992 1.637 4.041h-3.71a.353.353 0 0 1-.248-.118l-2.273-2.698 1.484-1.249c.448-.377.718-.896.766-1.484s-.129-1.143-.506-1.59l-6.255-7.421a2.137 2.137 0 0 0-1.484-.766 2.176 2.176 0 0 0-1.59.506l-1.496 1.249-.601-.719a2.058 2.058 0 0 0-1.414-.73 2.09 2.09 0 0 0-1.52.483l-5.042 4.3a2.098 2.098 0 0 0-.259 2.933l14.596 17.388c.4.471.978.742 1.59.742h6.385v2.167c0 1.131.918 2.062 2.062 2.062h1.543v3.616c0 .483.4.884.883.884a.89.89 0 0 0 .884-.884V43.05h6.149v10.496h-6.149v-2.804a.89.89 0 0 0-.884-.883c-.483 0-.883.4-.883.883v2.815h-5.56a2.064 2.064 0 0 0-2.062 2.062v2.45c0 1.131.919 2.062 2.062 2.062h20.792a2.063 2.063 0 0 0 2.061-2.062v-2.45a2.063 2.063 0 0 0-2.061-2.062h-5.561V43.003h1.543a2.064 2.064 0 0 0 2.062-2.062v-2.167h3.18c.095 0 .177.047.248.118l7.893 9.377c.413.483.99.73 1.579.73.471 0 .942-.153 1.319-.483l5.113-4.312c.424-.353.683-.86.73-1.414a2.121 2.121 0 0 0-.485-1.519zM148.672 11.55l-9.306-3.228c1.167-2.085 3.687-3.086 5.996-2.273a4.985 4.985 0 0 1 3.31 5.501zm-4.476 44.069v2.45c0 .165-.13.294-.294.294H123.11a.29.29 0 0 1-.294-.294v-2.45a.29.29 0 0 1 .294-.294h20.792c.164 0 .294.129.294.294zm-4.017-14.666c0 .165-.13.294-.294.294h-12.758a.29.29 0 0 1-.294-.294v-2.167h13.347v2.167zm-7.869-20.167h2.391v1.202h-2.391v-1.202zm-5.525 2.968h13.429v.165a4.047 4.047 0 0 1-4.041 4.041h-5.36a4.047 4.047 0 0 1-4.041-4.041l.013-.165zm-12.77-9.259c.118-.094.235-.106.306-.094.059 0 .188.035.283.141l6.255 7.421c.094.118.106.236.094.307-.012.059-.036.188-.142.283l-1.484 1.249-6.785-8.058 1.473-1.249zm46.237 28.154a.297.297 0 0 1-.106.212l-5.125 4.312c-.083.071-.165.071-.212.071a.275.275 0 0 1-.2-.106l-7.893-9.377a2.084 2.084 0 0 0-1.59-.742H118.68a.334.334 0 0 1-.248-.118l-14.584-17.376c-.118-.129-.094-.33.036-.447l5.101-4.3a.322.322 0 0 1 .2-.071c.094 0 .177.035.248.118l11.933 14.16c.4.471.978.742 1.59.742h26.317c.094 0 .177.035.247.118l10.661 12.582a.318.318 0 0 1 .071.222z"/></svg>