<svg xmlns="http://www.w3.org/2000/svg" width="60" height="60.304" viewBox="102.016 0 60 60.304"><path d="M105.906 16.532h1.945c0-5.896 3.926-10.697 8.752-10.697V3.89c-5.895 0-10.697 5.676-10.697 12.642zm25.283 10.697v1.945a5.836 5.836 0 0 0 5.835-5.834h-1.945a3.893 3.893 0 0 1-3.89 3.889zm0-9.725a5.836 5.836 0 0 0-5.834 5.835h1.945a3.9 3.9 0 0 1 3.89-3.89v-1.945z"/><path d="M142.579 30.839l1.252-1.252 16.811 16.811 1.374-1.374-15.268-15.28c3.671-3.112 5.835-7.962 5.835-13.213 0-9.117-6.54-16.532-14.587-16.532-4.108 0-7.938 1.92-10.697 5.3C124.541 1.92 120.711 0 116.603 0c-8.047 0-14.587 7.415-14.587 16.532 0 6.078 2.893 11.572 7.585 14.489l.365 2.65a63.222 63.222 0 0 0 8.886 24.822l.097.158a3.457 3.457 0 0 0 3.854 1.531c1.507-.401 2.565-1.848 2.565-3.5V40.843c0-.535.219-1.045.607-1.41.389-.377.9-.559 1.447-.535 1.009.048 1.835.997 1.835 2.103v15.814a3.5 3.5 0 0 0 1.143 2.577 3.476 3.476 0 0 0 2.674.875c1.07-.109 2.079-.778 2.698-1.787a63.989 63.989 0 0 0 6.662-14.757L158.71 60l1.374-1.374-22.659-22.646 5.154-5.141zm-4.582 1.823l-1.313-1.313a9.913 9.913 0 0 0 2.516-2.516l1.313 1.313-2.516 2.516zm-6.808-1.544c-4.291 0-7.779-3.488-7.779-7.779s3.488-7.78 7.779-7.78 7.78 3.489 7.78 7.78-3.489 7.779-7.78 7.779zm9.664 11.05a61.98 61.98 0 0 1-6.758 15.304c-.304.499-.766.827-1.24.875a1.53 1.53 0 0 1-1.179-.389 1.486 1.486 0 0 1-.499-1.131V41.013c0-2.164-1.617-3.938-3.683-4.048-1.07-.049-2.103.316-2.881 1.069a3.928 3.928 0 0 0-1.215 2.82v15.827c0 .766-.474 1.446-1.119 1.629a1.526 1.526 0 0 1-1.702-.669l-.097-.158a61.316 61.316 0 0 1-8.606-24.068l-.426-3.112a.985.985 0 0 0-.474-.717c-4.327-2.492-7.014-7.5-7.014-13.055 0-8.047 5.677-14.587 12.642-14.587 3.865 0 7.476 2.018 9.895 5.531.365.523 1.24.523 1.604 0 2.419-3.513 6.029-5.531 9.895-5.531 6.965 0 12.642 6.54 12.642 14.587 0 4.729-1.969 9.068-5.288 11.815l-.826-.827a.978.978 0 0 0-1.374 0l-1.264 1.252-1.714-1.714a9.72 9.72 0 0 0 .742-3.719c0-5.361-4.364-9.725-9.725-9.725-5.36 0-9.725 4.364-9.725 9.725 0 5.36 4.364 9.724 9.725 9.724a9.72 9.72 0 0 0 3.72-.741l1.714 1.714-1.252 1.252a.976.976 0 0 0 0 1.374l5.482 5.507z"/></svg>