<svg xmlns="http://www.w3.org/2000/svg" width="13" height="13.294" viewBox="15.485 3800 13 13.294"><g fill="#2AC9B9"><path d="M20.183 3807.333a.303.303 0 0 0-.302-.303h-1.054a.303.303 0 0 0-.303.303v1.054c0 .166.136.302.303.302h1.054a.303.303 0 0 0 .302-.302v-1.054zm2.63 0a.303.303 0 0 0-.302-.303h-1.054a.303.303 0 0 0-.303.303v1.054c0 .166.136.302.303.302h1.054a.303.303 0 0 0 .302-.302v-1.054zm2.631 0a.303.303 0 0 0-.303-.303h-1.054a.303.303 0 0 0-.302.303v1.054c0 .166.136.302.302.302h1.054a.303.303 0 0 0 .303-.302v-1.054zm-5.261 2.634a.303.303 0 0 0-.302-.302h-1.054a.303.303 0 0 0-.303.302v1.054c0 .167.136.303.303.303h1.054a.303.303 0 0 0 .302-.303v-1.054zm2.63 0a.303.303 0 0 0-.302-.302h-1.054a.303.303 0 0 0-.303.302v1.054c0 .167.136.303.303.303h1.054a.303.303 0 0 0 .302-.303v-1.054zm2.631 0a.303.303 0 0 0-.303-.302h-1.054a.303.303 0 0 0-.302.302v1.054c0 .167.136.303.302.303h1.054a.303.303 0 0 0 .303-.303v-1.054z"/><path d="M27.328 3801.482v1.606c0 .727-.591 1.313-1.315 1.313h-.831a1.319 1.319 0 0 1-1.323-1.313v-1.615h-3.744v1.615a1.32 1.32 0 0 1-1.323 1.313h-.833a1.312 1.312 0 0 1-1.315-1.313v-1.606a1.197 1.197 0 0 0-1.158 1.19v9.424c0 .659.534 1.198 1.193 1.198h10.614c.656 0 1.193-.542 1.193-1.198v-9.424a1.2 1.2 0 0 0-1.158-1.19zm-.387 10.026a.516.516 0 0 1-.514.515h-8.904a.516.516 0 0 1-.515-.515v-4.869c0-.283.231-.515.515-.515h8.904c.283 0 .514.231.514.515v4.869z"/><path d="M17.955 3803.538h.822c.25 0 .452-.202.452-.453v-2.632a.452.452 0 0 0-.452-.453h-.822a.45.45 0 0 0-.449.453v2.636a.45.45 0 0 0 .449.449zm7.213 0h.822a.454.454 0 0 0 .453-.453v-2.632a.453.453 0 0 0-.453-.453h-.822a.452.452 0 0 0-.452.453v2.636a.455.455 0 0 0 .452.449z"/></g></svg>