<svg xmlns="http://www.w3.org/2000/svg" width="8" height="10.515" viewBox="167.2 3800 8 10.515"><path d="M171.202 3805.143c1.168 0 2.118-1.151 2.118-2.572s-.313-2.571-2.118-2.571-2.118 1.15-2.118 2.571.949 2.572 2.118 2.572zm-3.999 3.926c0-.087 0-.027 0 0zm7.997.067c0-.025 0-.166 0 0zm-.006-.172c-.039-2.472-.364-3.178-2.836-3.626 0 0-.349.445-1.16.445s-1.16-.445-1.16-.445c-2.445.441-2.788 1.135-2.833 3.544-.003.195-.006.208-.006.184v.261s.589 1.187 3.999 1.187 3.999-1.187 3.999-1.187v-.192c.003.015 0-.011-.003-.171z"/></svg>