<svg xmlns="http://www.w3.org/2000/svg" width="12" height="11.993" viewBox="100.064 0.391 12 11.993"><path d="M112.058 9.854a.577.577 0 0 1-.178.508l-1.689 1.676a.987.987 0 0 1-.298.216 1.249 1.249 0 0 1-.361.115.972.972 0 0 0-.077.007 1.488 1.488 0 0 1-.164.007 5.98 5.98 0 0 1-.781-.082c-.361-.054-.799-.19-1.322-.406-.52-.215-1.111-.539-1.771-.973-.661-.431-1.364-1.024-2.109-1.779a13.87 13.87 0 0 1-1.474-1.676 12.033 12.033 0 0 1-.94-1.479 8.053 8.053 0 0 1-.534-1.233 6.442 6.442 0 0 1-.242-.954 3.213 3.213 0 0 1-.039-.881c.019-.122.056-.244.115-.366s.131-.223.215-.298l1.69-1.689a.554.554 0 0 1 .405-.178c.11 0 .209.033.293.096a.912.912 0 0 1 .216.234l1.359 2.578a.61.61 0 0 1 .063.445.776.776 0 0 1-.215.405l-.624.624a.194.194 0 0 0-.044.082.33.33 0 0 0-.019.096c.033.178.11.382.229.609.101.204.258.45.471.743.213.293.513.628.902 1.01.382.389.719.691 1.017.909.295.216.543.375.743.476.199.101.352.164.457.186l.16.033a.336.336 0 0 0 .164-.063l.724-.736a.777.777 0 0 1 .534-.204c.143 0 .258.026.342.078h.012l2.451 1.448c.178.107.284.245.319.416z"/></svg>