<svg xmlns="http://www.w3.org/2000/svg" width="13" height="12.991" viewBox="-0.086 3800.484 13 12.991"><path fill="#2AC9B9" d="M12.908 3810.736a.63.63 0 0 1-.193.551l-1.831 1.817a1 1 0 0 1-.324.233 1.299 1.299 0 0 1-.392.124 2.082 2.082 0 0 1-.263.014c-.175 0-.457-.029-.845-.09-.389-.061-.868-.207-1.43-.441-.564-.233-1.206-.584-1.92-1.052-.715-.468-1.478-1.111-2.285-1.928a15.254 15.254 0 0 1-1.597-1.816c-.423-.578-.762-1.113-1.019-1.604s-.45-.936-.578-1.336c-.128-.4-.216-.742-.261-1.032s-.065-.515-.054-.681l.014-.274c.018-.128.061-.258.124-.391s.142-.241.234-.324l1.831-1.828a.606.606 0 0 1 .441-.193.51.51 0 0 1 .317.104c.092.07.168.153.234.254l1.473 2.793c.083.146.106.309.07.481s-.115.321-.234.44l-.674.675a.213.213 0 0 0-.047.09.351.351 0 0 0-.021.104c.036.193.12.414.248.661.11.221.279.488.508.805s.555.681.978 1.095c.414.423.78.751 1.102.985.321.234.589.407.805.515.216.107.38.178.495.2l.171.033a.328.328 0 0 0 .09-.02.227.227 0 0 0 .09-.047l.785-.798a.847.847 0 0 1 .578-.221.71.71 0 0 1 .371.083h.011l2.656 1.57c.191.114.306.267.342.449z"/></svg>