<svg xmlns="http://www.w3.org/2000/svg" width="9" height="16.667" viewBox="320.5 3800 9 16.667"><path d="M329.171 3800h-2.163c-2.423 0-3.998 1.609-3.998 4.102v1.887h-2.164a.347.347 0 0 0-.346.346v2.735c0 .19.156.346.346.346h2.164v6.906c0 .19.156.346.346.346h2.838c.19 0 .346-.155.346-.346v-6.923h2.544c.19 0 .346-.156.346-.346v-2.734a.341.341 0 0 0-.104-.242.343.343 0 0 0-.243-.104h-2.562v-1.592c0-.762.19-1.16 1.177-1.16h1.454c.19 0 .346-.156.346-.346v-2.527c.002-.192-.137-.348-.327-.348z"/></svg>