<svg xmlns="http://www.w3.org/2000/svg" width="9" height="13.064" viewBox="218.089 3800 9 13.064"><path fill="#2AC9B9" d="M226.873 3803.253c-.045-.173-.14-.361-.209-.522-.838-2.011-2.664-2.73-4.137-2.73-1.974 0-4.149 1.324-4.438 4.052v.559c0 .024.009.231.018.337.164 1.3 1.188 2.682 1.957 3.982.823 1.394 1.68 2.764 2.527 4.134.522-.894 1.045-1.802 1.555-2.67.14-.255.301-.511.44-.757.094-.161.271-.325.353-.477.823-1.51 2.15-3.031 2.15-4.529v-.616c-.003-.162-.204-.729-.216-.763zm-4.313 2.798c-.58 0-1.215-.292-1.528-1.091-.045-.127-.042-.383-.042-.407v-.362c0-1.021.869-1.485 1.622-1.485.929 0 1.646.745 1.646 1.674 0 .927-.769 1.671-1.698 1.671z"/></svg>