<svg xmlns="http://www.w3.org/2000/svg" width="17" height="17" viewBox="0 3800 17 17"><path d="M2.182 3800h12.637c1.204 0 2.182.89 2.182 2.182v12.637c0 1.292-.978 2.182-2.182 2.182H2.182c-1.204 0-2.182-.89-2.182-2.182v-12.637c0-1.292.978-2.182 2.182-2.182zm10.193 1.885a.776.776 0 0 0-.768.769v1.832c0 .419.349.769.768.769h1.92c.419 0 .768-.35.768-.769v-1.832a.776.776 0 0 0-.768-.769h-1.92zm2.705 5.306h-1.501c.14.454.227.96.227 1.466 0 2.827-2.374 5.114-5.289 5.114-2.915 0-5.289-2.287-5.289-5.114 0-.506.07-.995.227-1.466H1.902v7.173c0 .367.297.681.681.681h11.834a.682.682 0 0 0 .681-.681l-.018-7.173zm-6.562-2.042c-1.885 0-3.421 1.484-3.421 3.316 0 1.833 1.536 3.316 3.421 3.316 1.885 0 3.421-1.483 3.421-3.316-.001-1.832-1.537-3.316-3.421-3.316z"/></svg>