<svg xmlns="http://www.w3.org/2000/svg" width="417" height="357.327" viewBox="704.704 4542.025 417 357.327"><path fill="#FFF" d="M858.113 4720.336h11.042v1.176h-4.934v35.709h-1.175v-35.709h-4.934v-1.176zm23.728 23.963v10.572c0 1.41-1.175 2.585-2.584 2.585h-4.229c-1.409 0-2.585-.94-2.585-2.585v-31.95c0-1.409 1.176-2.585 2.585-2.585h4.229c1.409 0 2.584.94 2.584 2.585v16.915h-8.222v15.035c0 .705.704 1.175 1.409 1.175h4.229c.705 0 1.409-.47 1.409-1.175v-10.572h1.175zm-8.222-5.638h7.047v-15.976c0-.705-.704-1.174-1.409-1.174h-4.229c-.705 0-1.409.469-1.409 1.174v15.976zm18.089-3.289l4.229-15.036h1.174l-4.934 17.15 5.639 19.734h-1.175l-4.934-17.385-4.934 17.385H885.6l5.639-19.734-4.934-17.15h1.174l4.229 15.036zm11.276-15.036v15.271h7.049v-15.271h1.174v36.885h-1.174v-20.438h-7.049v20.438h-1.174v-36.885h1.174zm13.391 34.301v-31.951c0-1.409 1.175-2.584 2.585-2.584h4.229c1.41 0 2.584.939 2.584 2.584v31.951a2.607 2.607 0 0 1-2.584 2.584h-4.229c-1.41 0-2.585-.94-2.585-2.584zm1.175.234c0 .705.705 1.175 1.41 1.175h4.229c.705 0 1.41-.47 1.41-1.175v-31.95c0-.704-.705-1.175-1.41-1.175h-4.229c-.705 0-1.41.471-1.41 1.175v31.95zm10.572 1.175h.705c1.409 0 2.114-1.409 2.114-2.584v-33.126h9.397v36.885h-1.175v-35.709h-7.049v31.95c0 2.114-1.174 3.759-3.523 3.759h-.704v-1.175h.235zm17.385-1.409v-31.951c0-1.409 1.175-2.584 2.585-2.584h4.229c1.409 0 2.584.939 2.584 2.584v31.951c0 1.409-1.175 2.584-2.584 2.584h-4.229c-1.41 0-2.585-.94-2.585-2.584zm1.175.234c0 .705.705 1.175 1.41 1.175h4.229c.705 0 1.409-.47 1.409-1.175v-31.95c0-.704-.704-1.175-1.409-1.175h-4.229c-.705 0-1.41.471-1.41 1.175v31.95zm21.143-34.535v1.176h-6.578v35.709h-1.175v-36.885h7.753zm2.584-6.577h1.88v1.879h-1.88v-1.879zm.471 6.577h1.174v36.885h-1.174v-36.885zm3.523-8.691h1.88v1.879h-1.88v-1.879zm2.82 8.691h1.174v36.885h-1.174v-36.885zm1.879-8.691h1.88v1.879h-1.88v-1.879zm-130.151 97.025v-36.884h9.396v36.884h-1.174v-35.709h-7.049v35.709h-1.173zm23.962-2.35c0 1.41-1.174 2.585-2.583 2.585h-3.994c-.705 0-1.41-.235-1.645-.705v7.753h-1.175v-43.932h.47l.47 1.174c.235-.704.94-1.174 1.88-1.174h3.994c1.409 0 2.583.939 2.583 2.584v31.715zm-1.174-31.95c0-.704-.705-1.175-1.409-1.175h-4.229c-.704 0-1.409.471-1.409 1.175v32.186c0 .705.705 1.175 1.409 1.175h4.229c.704 0 1.409-.47 1.409-1.175v-32.186zm13.157-1.409h-4.229c-.704 0-1.409.471-1.409 1.175v10.571h-1.175v-10.571c0-1.41 1.175-2.585 2.584-2.585h4.229c1.409 0 2.584.94 2.584 2.585v34.534h-.47l-.47-1.174c-.235.704-.94 1.174-1.88 1.174h-3.994c-1.409 0-2.584-.939-2.584-2.584v-13.391c0-1.645 0-2.115 1.645-2.819l6.578-3.994v-11.512c0-.938-.705-1.409-1.409-1.409zm-5.639 33.359c0 .705.705 1.176 1.409 1.176h4.229c.704 0 1.409-.471 1.409-1.176v-19.264l-6.813 3.994c-.47.234-.47.47-.47.939v14.33h.236zm13.391-34.534h6.813c1.409 0 2.584.939 2.584 2.584v12.452c0 .704-.705 1.645-1.409 1.879.939.234 1.409 1.175 1.409 1.879v15.74c0 1.41-1.175 2.585-2.584 2.585h-6.813v-37.119zm1.174 16.21h5.639c.705 0 1.409-.47 1.409-1.174v-12.452c0-.704-.704-1.409-1.409-1.409h-5.639v15.035zm0 19.5h5.639c.705 0 1.409-.471 1.409-1.41v-15.74c0-.705-.704-1.175-1.409-1.175h-5.639v18.325zm22.789-35.71v36.884h-1.176v-31.48l-7.047 31.48h-1.175v-36.884h1.175v31.48l7.047-31.48h1.176zm2.349 35.71h.704c1.41 0 2.115-1.41 2.115-2.585v-33.125h9.397v36.884h-1.175v-35.709h-7.048v31.95c0 2.114-1.175 3.759-3.524 3.759h-.705v-1.174h.236zm24.197 1.174h-3.993c-.94 0-1.645-.47-1.879-1.174l-.471 1.174h-.47v-36.884h1.175v13.156c.234-.47.939-.705 1.645-.705h3.993c1.41 0 2.585.94 2.585 2.585v19.498c0 1.41-1.175 2.35-2.585 2.35zm0-23.258h-4.228c-.706 0-1.41.47-1.41 1.175v19.733c0 .705.704 1.176 1.41 1.176h4.228c.705 0 1.41-.471 1.41-1.176v-19.733c0-.705-.705-1.175-1.41-1.175zm8.928-13.626v15.271h7.048v-15.271h1.175v36.884h-1.175v-20.438h-7.048v20.438h-1.175v-36.884h1.175zm13.391 34.534v-31.95c0-1.409 1.175-2.584 2.585-2.584h4.229c1.409 0 2.584.939 2.584 2.584v31.95c0 1.41-1.175 2.585-2.584 2.585h-4.229c-1.411-.235-2.585-1.175-2.585-2.585zm1.174 0c0 .705.705 1.176 1.41 1.176h4.229c.705 0 1.409-.471 1.409-1.176v-31.95c0-.704-.704-1.175-1.409-1.175h-4.229c-.705 0-1.41.471-1.41 1.175v31.95zm10.573-43.226h1.879v1.879h-1.879v-1.879zm2.818 8.692h1.175v36.884h-1.175v-36.884zm2.115-8.692h1.879v1.879h-1.879v-1.879zm-104.074 94.677c0 1.409-1.175 2.584-2.584 2.584h-3.993c-.706 0-1.411-.234-1.646-.705v7.753h-1.174v-43.932h.47l.47 1.175c.235-.705.939-1.175 1.88-1.175h3.993c1.409 0 2.584.939 2.584 2.584v31.716zm-1.175-31.951c0-.705-.705-1.175-1.409-1.175h-4.229c-.704 0-1.408.47-1.408 1.175v32.185c0 .705.704 1.175 1.408 1.175h4.229c.704 0 1.409-.47 1.409-1.175v-32.185zm15.741 21.379v10.571c0 1.409-1.175 2.584-2.585 2.584h-4.229c-1.409 0-2.584-.939-2.584-2.584v-31.95a2.607 2.607 0 0 1 2.584-2.584h4.229c1.41 0 2.585.939 2.585 2.584v16.915h-8.223v15.035c0 .705.704 1.175 1.409 1.175h4.229c.705 0 1.41-.47 1.41-1.175v-10.571h1.175zm-8.222-5.404h7.048v-15.975c0-.705-.705-1.175-1.41-1.175h-4.229c-.705 0-1.409.47-1.409 1.175v15.975zm14.33-.94l8.692-17.385h1.41l-6.578 12.687 6.813 24.197h-1.175l-6.343-22.553-2.819 5.638v17.15h-1.175v-36.885h1.175v17.151zm11.512 18.325h.705c1.409 0 2.113-1.409 2.113-2.584v-33.125h9.397v36.884h-1.174v-35.709h-7.049v31.95c0 2.114-1.175 3.759-3.523 3.759h-.704v-1.175h.235zm24.198-34.534h-4.229c-.704 0-1.409.47-1.409 1.175v10.571h-1.175v-10.571a2.607 2.607 0 0 1 2.584-2.584h4.229c1.409 0 2.584.939 2.584 2.584v34.534h-.471l-.47-1.175c-.234.705-.939 1.175-1.879 1.175h-3.994c-1.409 0-2.584-.939-2.584-2.584v-13.392c0-1.644 0-2.113 1.645-2.818l6.578-3.994v-11.512c0-.94-.705-1.409-1.409-1.409zm-5.639 33.125c0 .705.705 1.175 1.409 1.175h4.229c.704 0 1.409-.47 1.409-1.175v-19.265l-6.813 3.994c-.47.235-.47.47-.47.939v14.331h.236zm26.313-34.3v36.884h-1.175v-29.131l-4.699 29.131h-1.175l-4.698-29.131v29.131h-1.175v-36.884h1.175l5.169 33.125 5.168-32.891h1.41v-.234zm14.565 0v36.884h-1.175v-31.48l-7.048 31.48h-1.175v-36.884h1.175v31.48l7.048-31.48h1.175zm-265.001-128.272h417v2.114h-417z"/><path fill="#FFF" d="M738.299 4696.373c11.746-85.983 85.75-152.469 175.023-152.469s163.041 66.485 175.021 152.469h2.114c-11.981-87.158-86.688-154.348-176.901-154.348S748.4 4609.45 736.654 4696.373h1.645zm175.023 200.865c-97.496 0-176.668-79.171-176.668-176.667 0-6.813.471-13.391 1.175-19.969h-2.114c-.705 6.578-1.175 13.156-1.175 19.969 0 98.436 80.111 178.781 178.782 178.781 14.8 0 29.131-1.879 42.756-5.168 0-.704-.234-1.41-.234-2.114-13.626 3.289-27.956 5.168-42.522 5.168z"/><path fill="#EE4165" d="M1085.055 4790.58c-.704-.234-1.175-.469-1.879-.704-20.674 52.859-66.25 93.501-122.163 107.362 0 .705.234 1.41.234 2.114 56.618-14.094 102.665-55.207 123.808-108.772z"/><path fill="#FFF" d="M1090.929 4700.603h-2.115c.705 6.578 1.175 13.156 1.175 19.969 0 22.554-4.229 44.167-11.98 64.136.704.235 1.175.471 1.879.705 7.753-20.204 12.216-42.053 12.216-64.841-.001-6.813-.471-13.391-1.175-19.969zm-227.177-115.351h8.691l9.397 85.279h-5.403l-1.88-17.854h-12.686l-1.879 17.854h-5.404l9.164-85.279zm10.102 62.021l-5.638-52.389h-.471l-5.403 52.389h11.512zm16.915-62.021h5.873v6.578h-5.873v-6.578zm.235 13.156h5.872v72.123h-5.872v-72.123zm15.975 5.168h-4.229v-4.934h3.994v-11.276l5.873-1.879v13.155h6.343v4.934h-6.343v60.612c0 .705.705 1.409 1.409 1.409h3.76v4.934h-3.995c-3.523 0-7.047-3.523-7.047-7.047l.235-59.908zm17.854 1.88c0-3.524 3.524-7.048 7.048-7.048h8.458c3.289 0 6.578 3.523 6.578 7.048v31.011h-16.211v27.486c0 .705.705 1.41 1.41 1.41h7.282c.705 0 1.41-.705 1.41-1.41v-20.204h5.873v19.735c0 3.523-3.289 7.047-6.578 7.047h-8.927c-3.289 0-6.344-3.523-6.344-7.047v-58.028h.001zm16.21 26.077v-26.782c0-.704-.704-1.409-1.409-1.409h-7.283c-.939 0-1.409.705-1.409 1.409v26.782h10.101zm23.728.705l-9.397-33.83h5.873l6.578 23.493 6.813-23.493h5.873l-9.867 33.83 10.807 38.293h-5.873l-7.987-28.191-7.987 28.191h-5.874l11.041-38.293z"/><path fill="#EE4165" d="M890.769 4585.252h5.873v6.578h-5.873z"/></svg>