<svg xmlns="http://www.w3.org/2000/svg" width="122" height="104.542" viewBox="704.704 4542.025 122 104.542"><path fill="#FFF" d="M749.586 4594.193h3.23v.344h-1.443v10.447h-.344v-10.447h-1.443v-.344zm6.942 7.011v3.093a.763.763 0 0 1-.756.756h-1.237c-.412 0-.756-.275-.756-.756v-9.348c0-.412.344-.756.756-.756h1.237c.412 0 .756.275.756.756v4.949h-2.405v4.398c0 .206.206.344.412.344h1.237c.206 0 .412-.138.412-.344v-3.093h.344zm-2.405-1.649h2.062v-4.674c0-.207-.206-.344-.412-.344h-1.237c-.206 0-.412.137-.412.344v4.674zm5.292-.963l1.237-4.398h.344l-1.443 5.018 1.649 5.773h-.344l-1.443-5.086-1.443 5.086h-.344l1.649-5.773-1.443-5.018h.344l1.237 4.398zm3.299-4.399v4.467h2.063v-4.467h.344v10.791h-.344v-5.98h-2.063v5.98h-.343v-10.791h.343zm3.918 10.036v-9.348c0-.412.344-.756.756-.756h1.237c.413 0 .756.274.756.756v9.348a.763.763 0 0 1-.756.756h-1.237c-.412-.001-.756-.276-.756-.756zm.344.068c0 .206.206.344.412.344h1.237c.206 0 .413-.138.413-.344v-9.348c0-.206-.207-.344-.413-.344h-1.237c-.206 0-.412.138-.412.344v9.348zm3.092.344h.206c.413 0 .619-.412.619-.756v-9.691h2.749v10.791h-.344v-10.447h-2.062v9.348c0 .618-.344 1.1-1.031 1.1H770v-.344h.068zm5.087-.412v-9.348c0-.412.344-.756.756-.756h1.237c.412 0 .756.274.756.756v9.348a.763.763 0 0 1-.756.756h-1.237c-.412-.001-.756-.276-.756-.756zm.344.068c0 .206.206.344.412.344h1.237c.206 0 .412-.138.412-.344v-9.348c0-.206-.206-.344-.412-.344h-1.237c-.206 0-.412.138-.412.344v9.348zm6.186-10.104v.344h-1.925v10.447h-.344v-10.791h2.269zm.755-1.924h.55v.55h-.55v-.55zm.138 1.924h.344v10.791h-.344v-10.791zm1.031-2.543h.55v.55h-.55v-.55zm.825 2.543h.344v10.791h-.344v-10.791zm.549-2.543h.55v.55h-.55v-.55zm-38.077 28.387v-10.791h2.749v10.791h-.344v-10.448h-2.063v10.448h-.342zm7.01-.687a.763.763 0 0 1-.756.756h-1.168c-.206 0-.413-.068-.481-.207v2.269h-.344v-12.853h.138l.138.344c.068-.207.274-.344.55-.344h1.168c.413 0 .756.274.756.756v9.279zm-.343-9.348c0-.207-.207-.344-.413-.344h-1.237c-.206 0-.412.137-.412.344v9.416c0 .206.206.344.412.344h1.237c.206 0 .413-.138.413-.344v-9.416zm3.849-.413h-1.237c-.206 0-.412.138-.412.344v3.093h-.344v-3.093c0-.412.344-.756.756-.756h1.237c.412 0 .756.274.756.756v10.104h-.138l-.137-.344c-.069.205-.275.344-.55.344h-1.169c-.412 0-.756-.275-.756-.757v-3.917c0-.481 0-.619.481-.825l1.924-1.169v-3.367c.001-.275-.205-.413-.411-.413zm-1.65 9.761c0 .206.206.344.412.344h1.237c.206 0 .412-.138.412-.344v-5.637l-1.993 1.169c-.138.068-.138.138-.138.274v4.193h.07zm3.918-10.104h1.993c.412 0 .756.274.756.756v3.643c0 .206-.206.48-.412.55.274.068.412.344.412.55v4.605a.763.763 0 0 1-.756.756h-1.993v-10.86zm.343 4.742h1.65c.206 0 .412-.138.412-.344v-3.643a.443.443 0 0 0-.412-.413h-1.65v4.4zm0 5.705h1.65c.206 0 .412-.138.412-.413v-4.604c0-.207-.206-.344-.412-.344h-1.65v5.361zm6.668-10.447v10.791h-.344v-9.211l-2.063 9.211h-.344v-10.791h.344v9.209l2.063-9.209h.344zm.687 10.447h.206c.413 0 .619-.413.619-.757v-9.69h2.749v10.791h-.344v-10.448h-2.062v9.348c0 .619-.344 1.101-1.031 1.101h-.206v-.344h.069zm7.08.344h-1.169c-.274 0-.48-.139-.55-.344l-.138.344h-.137v-10.791h.344v3.849c.068-.138.274-.206.48-.206h1.169c.412 0 .756.274.756.756v5.705c.001.412-.343.687-.755.687zm0-6.805h-1.237c-.206 0-.412.137-.412.344v5.773c0 .206.206.344.412.344h1.237c.206 0 .412-.138.412-.344v-5.773c0-.207-.206-.344-.412-.344zm2.611-3.986v4.467h2.063v-4.467h.344v10.791h-.344v-5.98h-2.063v5.98h-.344v-10.791h.344zm3.918 10.104v-9.348c0-.413.344-.756.756-.756h1.237c.412 0 .756.274.756.756v9.348a.763.763 0 0 1-.756.756h-1.237c-.412-.069-.756-.344-.756-.756zm.344 0c0 .206.206.344.412.344h1.237c.206 0 .412-.138.412-.344v-9.348c0-.207-.206-.344-.412-.344h-1.237c-.206 0-.412.137-.412.344v9.348zm3.093-12.648h.55v.55h-.55v-.55zm.825 2.544h.344v10.791h-.344v-10.791zm.618-2.544h.55v.55h-.55v-.55zm-30.448 27.699a.763.763 0 0 1-.756.757h-1.169c-.206 0-.412-.069-.481-.207v2.269h-.343v-12.853h.137l.138.344c.069-.207.275-.344.55-.344h1.169c.412 0 .756.274.756.756v9.278zm-.344-9.347c0-.206-.206-.343-.412-.343h-1.237c-.206 0-.412.137-.412.343v9.417c0 .206.206.344.412.344h1.237c.206 0 .412-.138.412-.344v-9.417zm4.605 6.255v3.093a.764.764 0 0 1-.757.757h-1.236c-.413 0-.757-.275-.757-.757v-9.348c0-.412.344-.756.757-.756h1.236c.413 0 .757.274.757.756v4.949h-2.406v4.398c0 .206.206.344.413.344h1.236c.207 0 .413-.138.413-.344v-3.093h.344zm-2.406-1.581h2.063v-4.674c0-.206-.206-.343-.413-.343h-1.236c-.207 0-.413.137-.413.343v4.674zm4.193-.275l2.544-5.086h.412l-1.925 3.711 1.993 7.08h-.344l-1.855-6.599-.825 1.649v5.018h-.343v-10.791h.343v5.018zm3.368 5.361h.206c.413 0 .619-.413.619-.756v-9.691h2.749v10.791h-.344v-10.447h-2.062v9.348c0 .618-.344 1.1-1.031 1.1h-.206v-.344h.069zm7.08-10.103h-1.237c-.206 0-.413.137-.413.343v3.093h-.343v-3.093c0-.412.343-.756.756-.756h1.237c.412 0 .756.274.756.756v10.104h-.138l-.138-.344c-.068.206-.274.344-.55.344h-1.168c-.413 0-.756-.275-.756-.757v-3.917c0-.481 0-.619.48-.825l1.925-1.169v-3.367c.001-.275-.205-.412-.411-.412zm-1.651 9.69c0 .206.207.344.413.344h1.237c.206 0 .412-.138.412-.344v-5.636l-1.993 1.168c-.138.069-.138.138-.138.275v4.192h.069zm7.699-10.034v10.791h-.344v-8.523l-1.374 8.523h-.344l-1.375-8.523v8.523h-.344v-10.791h.344l1.513 9.691 1.512-9.623h.412v-.068zm4.261 0v10.791h-.344v-9.211l-2.062 9.211h-.344v-10.791h.344v9.21l2.062-9.21h.344zm-77.53-37.528h122v.618h-122z"/><path fill="#FFF" d="M714.533 4587.183c3.437-25.156 25.087-44.607 51.205-44.607 26.119 0 47.7 19.451 51.206 44.607h.618c-3.505-25.5-25.362-45.157-51.755-45.157-26.394 0-48.319 19.727-51.756 45.157h.482zm51.205 58.766c-28.523 0-51.687-23.163-51.687-51.688 0-1.993.138-3.918.344-5.842h-.618c-.207 1.924-.344 3.849-.344 5.842 0 28.799 23.438 52.306 52.305 52.306 4.33 0 8.523-.55 12.51-1.513 0-.205-.069-.412-.069-.618-3.987.962-8.179 1.513-12.441 1.513z"/><path fill="#EE4165" d="M815.981 4614.744c-.206-.068-.344-.138-.55-.206-6.048 15.465-19.382 27.355-35.74 31.411 0 .205.068.412.068.618 16.565-4.124 30.037-16.152 36.222-31.823z"/><path fill="#FFF" d="M817.7 4588.42h-.619c.207 1.924.344 3.849.344 5.842a51.696 51.696 0 0 1-3.505 18.764c.206.069.344.138.55.207 2.269-5.912 3.574-12.304 3.574-18.971 0-1.993-.138-3.918-.344-5.842zm-66.464-33.748h2.543l2.749 24.95h-1.581l-.55-5.224h-3.711l-.55 5.224h-1.581l2.681-24.95zm2.955 18.145l-1.649-15.327h-.138l-1.581 15.327h3.368zm4.95-18.145h1.718v1.925h-1.718v-1.925zm.068 3.849h1.718v21.101h-1.718v-21.101zm4.674 1.512h-1.237v-1.443h1.169v-3.299l1.718-.551v3.85h1.855v1.443h-1.855v17.732c0 .207.206.413.412.413h1.101v1.443h-1.169c-1.031 0-2.062-1.031-2.062-2.062l.068-17.526zm5.223.55c0-1.031 1.031-2.062 2.062-2.062h2.475c.963 0 1.925 1.03 1.925 2.062v9.073h-4.743v8.041c0 .206.207.412.413.412h2.131a.442.442 0 0 0 .412-.412v-5.911h1.719v5.774c0 1.03-.963 2.062-1.925 2.062h-2.612c-.962 0-1.855-1.031-1.855-2.062v-16.977h-.002zm4.743 7.63v-7.836a.443.443 0 0 0-.412-.412h-2.131c-.274 0-.412.206-.412.412v7.836h2.955zm6.942.205l-2.749-9.896h1.718l1.925 6.873 1.993-6.873h1.719l-2.888 9.896 3.162 11.204h-1.718l-2.338-8.248-2.336 8.248h-1.719l3.231-11.204z"/><path fill="#EE4165" d="M759.141 4554.672h1.718v1.925h-1.718z"/></svg>