<svg xmlns="http://www.w3.org/2000/svg" width="80" height="80" viewBox="0 3800 80 80"><path fill="#FFF" d="M40 3880c-22.042 0-40-17.958-40-40s17.958-40 40-40 40 17.958 40 40-17.958 40-40 40zm0-79.105c-21.594 0-39.105 17.51-39.105 39.105 0 21.539 17.566 39.105 39.105 39.105s39.105-17.566 39.105-39.105c0-21.595-17.566-39.105-39.105-39.105z"/><path fill="#FFF" d="M22.322 3855.161l-.839-7.833h-5.091l-.839 7.833h-2.965l4.196-37.874h4.308l4.196 37.874h-2.966zm-1.119-10.741l-2.238-21.035-2.182 21.035h4.42z"/><path fill="#FFF" d="M20.867 3817.566l4.14 37.314h-2.405l-.839-7.832h-5.594l-.839 7.832h-2.406l4.14-37.314h3.803m-4.419 27.133h5.091l-2.518-22.937h-.224l-2.349 22.937m4.923-27.692H16.56l-.056.504-4.14 37.314-.056.615h3.524l.056-.503.783-7.329h4.587l.783 7.329.056.503h3.525l-.056-.615-4.14-37.314-.055-.504zm-4.308 27.133l1.902-18.069 1.958 18.069h-3.86zm11.636 11.021v-32.112h3.133v32.168l-3.133-.056zm-.055-34.462v-3.412h3.133v3.412h-3.133z"/><path fill="#FFF" d="M31.44 3817.566v2.854h-2.573v-2.854h2.573m.057 5.763v31.608h-2.573v-31.608h2.573m.503-6.322h-3.693v3.973H32v-3.973zm.056 5.763h-3.693v32.727h3.693v-32.727zm6.993 32.391c-1.734 0-3.356-1.623-3.356-3.357v-26.014h-1.79v-2.741h1.79v-4.867l3.133-.951v5.818h2.741v2.741h-2.741v26.294c0 .168.168.336.335.336h1.902v2.741h-2.014z"/><path fill="#FFF" d="M38.545 3817.566v5.762h2.741v2.182h-2.741v26.573c0 .336.28.615.615.615h1.623v2.182h-1.734c-1.566 0-3.077-1.51-3.077-3.077v-26.293h-1.791v-2.182h1.791v-4.979l2.573-.783m.56-.783l-.728.224-2.573.783-.392.112v4.811h-1.79v3.301h1.79v25.734c0 1.847 1.79 3.637 3.636 3.637h2.294v-3.302h-2.183c-.056 0-.056-.056-.056-.056v-25.958h2.742v-3.301h-2.742v-5.985h.002z"/><g fill="#FFF"><path d="M46.657 3855.161c-1.566 0-3.077-1.679-3.077-3.357v-25.399c0-1.734 1.622-3.356 3.356-3.356h3.636c1.623 0 3.133 1.623 3.133 3.356v13.875h-7.049v11.804c0 .168.168.336.336.336h3.245c.168 0 .335-.168.335-.336v-9.175h3.133v8.895c0 1.734-1.511 3.357-3.133 3.357h-3.915zm3.972-17.622v-11.413a.361.361 0 0 0-.336-.336h-3.245c-.224 0-.335.168-.335.336v11.413h3.916z"/><path d="M50.573 3823.329c1.455 0 2.854 1.51 2.854 3.077v13.65h-7.049v12.084c0 .336.28.616.616.616h3.245c.335 0 .615-.335.615-.616v-8.951h2.574v8.616c0 1.566-1.399 3.077-2.854 3.077h-3.916c-1.398 0-2.797-1.51-2.797-3.077v-25.399c0-1.566 1.51-3.077 3.077-3.077h3.635m-4.196 14.489h4.476v-11.692c0-.336-.335-.615-.615-.615h-3.245a.619.619 0 0 0-.616.615v11.692m4.196-15.048h-3.636c-1.846 0-3.636 1.79-3.636 3.636v25.455c0 1.846 1.623 3.636 3.356 3.636h3.916c1.791 0 3.413-1.791 3.413-3.636v-9.231h-3.637v9.455l-.056.056h-3.245c-.056 0-.056-.056-.056-.056v-11.524h7.049v-14.156c-.055-1.901-1.677-3.635-3.468-3.635zm-3.636 14.489v-11.133s0-.056.056-.056h3.245l.056.056v11.133h-3.357z"/></g><g fill="#FFF"><path d="M65.846 3855.161l-3.301-11.58-3.3 11.58h-3.133l4.867-17.063-4.196-15.049h3.133l2.686 9.511 2.741-9.511h3.133l-4.364 15.049 4.867 17.063z"/><path d="M68.14 3823.329l-4.308 14.769 4.755 16.839h-2.573l-3.524-12.308-3.525 12.308h-2.461l4.811-16.839-4.14-14.769h2.573l2.854 10.293 2.965-10.293h2.573m.727-.559h-3.748l-.112.392-2.405 8.392-2.35-8.392-.112-.392h-3.748l.224.727 4.084 14.601-4.755 16.672-.224.727h3.749l.112-.392 2.965-10.406 2.965 10.406.112.392h3.748l-.224-.727-4.699-16.672 4.251-14.601.167-.727z"/></g><g fill="#EE4165"><path d="M28.644 3817.287h3.133v3.412h-3.133z"/><path d="M31.44 3817.566v2.854h-2.573v-2.854h2.573m.56-.559h-3.693v3.973H32v-3.973z"/></g><path fill="#EE4165" d="M1.623 3859.301h77.371v.951H1.623zm0 .951h77.371v.951H1.623z"/></svg>