<svg xmlns="http://www.w3.org/2000/svg" width="46" height="64.382" viewBox="242.773 -0.013 46 64.382"><path fill="#404F65" d="M266.592 0c-13.079-.44-23.818 10.023-23.818 23.001 0 14.726 14.135 25.416 22.058 40.783.402.78 1.521.78 1.924 0 7.168-13.833 19.417-23.102 21.681-36.432C290.788 13.57 280.563.479 266.592 0z"/><path fill="none" d="M252.067 9.671h28.924v32.068h-28.924z"/><path fill="#FFF" d="M271.434 17.708a.418.418 0 0 0-.415.415c0 .226.188.415.415.415s.415-.188.415-.415a.419.419 0 0 0-.415-.415z"/><path fill="#FFF" d="M271.811 16.085c-2.604-.83-4.792.101-5.785.679-.993-.579-3.182-1.509-5.785-.679-3.458 1.107-5.068 6.149-2.301 10.224 1.308 1.924 1.484 3.408 1.672 4.993.138 1.157.277 2.339.868 3.735.39.931.956 2.012 1.773 2.012h.025c.667-.013 1.195-.679 1.735-2.138.277-.742.453-1.623.616-2.465.302-1.534.616-3.106 1.409-3.119.78 0 1.094 1.585 1.396 3.106.164.855.339 1.735.616 2.478.541 1.458 1.069 2.125 1.735 2.138h.025c.817 0 1.383-1.069 1.773-2.012.566-1.333.704-2.515.855-3.672.201-1.623.39-3.144 1.686-5.056 2.793-4.125 1.083-9.13-2.313-10.224zm1.622 9.746c-1.409 2.075-1.622 3.786-1.823 5.42-.139 1.145-.277 2.226-.792 3.446-.616 1.458-.968 1.497-1.006 1.497-.013 0-.403-.025-.969-1.597-.251-.679-.415-1.534-.578-2.352-.189-.918-.352-1.786-.642-2.465-.365-.868-.893-1.308-1.572-1.308h-.013c-.679 0-1.22.453-1.584 1.32-.289.679-.453 1.547-.642 2.465-.163.817-.327 1.66-.578 2.352-.579 1.559-.956 1.584-.969 1.584-.038 0-.402-.038-1.019-1.497-.541-1.283-.667-2.364-.805-3.509-.188-1.61-.39-3.257-1.811-5.357-2.502-3.672-.993-8.048 1.874-8.966 2.49-.792 4.54.239 5.307.717a.4.4 0 0 0 .44 0c.767-.478 2.817-1.521 5.307-.717 2.919.944 4.315 5.37 1.875 8.967z"/><path fill="#FFF" d="M273.559 20.059a4.734 4.734 0 0 0-.528-1.069.421.421 0 0 0-.579-.113.422.422 0 0 0-.113.579c.176.264.327.553.428.88.415 1.208.302 2.604-.302 3.849-.101.201-.013.453.188.553s.453.012.554-.189c.717-1.446.83-3.082.352-4.49zm-9.042 1.383l-1.673-.553-.553-1.673a.419.419 0 0 0-.39-.289.403.403 0 0 0-.39.289l-.553 1.673-1.673.553a.42.42 0 0 0-.289.39c0 .176.113.34.289.39l1.673.553.553 1.672a.42.42 0 0 0 .39.29.404.404 0 0 0 .39-.29l.553-1.672 1.673-.553a.419.419 0 0 0 .289-.39.438.438 0 0 0-.289-.39zm-2.138.617a.399.399 0 0 0-.264.264l-.226.691-.227-.691a.395.395 0 0 0-.264-.264l-.691-.227.691-.226a.397.397 0 0 0 .264-.264l.227-.692.226.692a.4.4 0 0 0 .264.264l.692.226-.692.227z"/></svg>