<svg xmlns="http://www.w3.org/2000/svg" width="23" height="34.517" viewBox="233.555 3800 23 34.517"><path d="M245.055 3800c-6.349 0-11.5 5.168-11.5 11.5v11.517c0 6.349 5.167 11.5 11.5 11.5s11.5-5.151 11.5-11.5V3811.5c0-6.332-5.151-11.5-11.5-11.5zm10.237 23.017c0 5.644-4.593 10.22-10.22 10.22s-10.221-4.577-10.221-10.22V3811.5c0-5.644 4.594-10.22 10.221-10.22s10.22 4.593 10.22 10.22v11.517z"/><path d="M245.055 3803.839a.63.63 0 0 0-.64.64v5.791c0 .361.279.64.64.64s.64-.278.64-.64v-5.791a.63.63 0 0 0-.64-.64z"/></svg>