<svg xmlns="http://www.w3.org/2000/svg" width="30" height="25.644" viewBox="100 72.581 30 25.644"><path d="M106.775 80.003v-.163h-.968v.164c0 .278.006.557.024.829l.968-.048a12.01 12.01 0 0 1-.024-.782zm.098 1.719l-.962.109a16.193 16.193 0 0 0 2.456 6.89l.816-.526a15.157 15.157 0 0 1-2.31-6.473zm10.967-6.619a5.037 5.037 0 0 1-2.837.865 5.037 5.037 0 0 1-2.837-.865l-.544.805c.999.672 2.166 1.029 3.376 1.029s2.377-.357 3.375-1.029l-.533-.805zm-13.485 13.933h-.968a3.39 3.39 0 0 1-3.388 3.388v.968a3.39 3.39 0 0 1 3.388 3.388h.968a3.39 3.39 0 0 1 3.388-3.388v-.968a3.391 3.391 0 0 1-3.388-3.388zm-.483 5.759a4.378 4.378 0 0 0-1.887-1.888 4.367 4.367 0 0 0 1.887-1.888 4.375 4.375 0 0 0 1.888 1.888 4.375 4.375 0 0 0-1.888 1.888z"/><path d="M126.618 76.452h-.925c-.92-2.281-3.158-3.872-5.705-3.872-1.198 0-2.329.327-3.267.938a3.143 3.143 0 0 1-3.442 0c-.932-.611-2.063-.938-3.267-.938-3.382 0-6.141 2.759-6.141 6.146v1.276c0 3.473.992 6.848 2.868 9.764a17.084 17.084 0 0 1 2.202 5.094l.526 2.105a1.658 1.658 0 0 0 1.615 1.258c.829 0 1.524-.593 1.646-1.416l1.083-7.241c.091-.593.587-1.022 1.192-1.022s1.101.43 1.186 1.022l1.083 7.241a1.651 1.651 0 0 0 1.646 1.416c.762 0 1.428-.52 1.615-1.258l.526-2.105a17.198 17.198 0 0 1 2.202-5.094 18.23 18.23 0 0 0 2.383-5.62v.048h.968A3.39 3.39 0 0 1 130 80.806v-.966a3.389 3.389 0 0 1-3.382-3.388zm-4.168 12.789a18.065 18.065 0 0 0-2.329 5.384l-.526 2.105a.697.697 0 0 1-.671.526.697.697 0 0 1-.69-.593l-1.083-7.241c-.163-1.071-1.064-1.845-2.147-1.845s-1.984.774-2.147 1.845l-1.083 7.241a.687.687 0 0 1-.689.593.7.7 0 0 1-.678-.526l-.526-2.105a18.043 18.043 0 0 0-2.329-5.384 17.06 17.06 0 0 1-2.71-9.238v-1.276a5.185 5.185 0 0 1 5.178-5.179c1.01 0 1.954.272 2.734.781a4.016 4.016 0 0 0 2.25.671c.817 0 1.573-.224 2.25-.671.774-.508 1.724-.781 2.734-.781 2.553 0 4.755 1.9 5.118 4.386l.018.314a3.358 3.358 0 0 1-2.861 1.591v.968c1.137 0 2.142.563 2.758 1.428a17.165 17.165 0 0 1-2.571 7.006zm3.684-7.03a4.367 4.367 0 0 0-1.888-1.887 4.375 4.375 0 0 0 1.888-1.888 4.375 4.375 0 0 0 1.888 1.888 4.383 4.383 0 0 0-1.888 1.887z"/></svg>