<svg xmlns="http://www.w3.org/2000/svg" width="11" height="10.992" viewBox="99.938 0.346 11 10.992"><path d="M110.933 9.021a.531.531 0 0 1-.164.466l-1.549 1.537a1.091 1.091 0 0 1-.827.313c-.148 0-.386-.024-.715-.076-.329-.051-.734-.175-1.21-.373-.478-.198-1.02-.495-1.625-.891s-1.25-.94-1.933-1.631a12.9 12.9 0 0 1-1.351-1.537 10.828 10.828 0 0 1-.862-1.357 7.254 7.254 0 0 1-.489-1.13 5.963 5.963 0 0 1-.221-.873 2.765 2.765 0 0 1-.045-.577l.011-.232a1.15 1.15 0 0 1 .104-.331.856.856 0 0 1 .198-.274l1.549-1.547a.514.514 0 0 1 .373-.164c.101 0 .19.028.269.087s.143.129.198.215l1.247 2.363a.57.57 0 0 1 .059.407.721.721 0 0 1-.198.373l-.571.571a.319.319 0 0 0-.057.163c.03.164.101.35.209.56.093.187.236.413.43.681.194.269.47.577.828.927.35.358.66.636.932.833s.499.344.681.436.322.15.418.169l.145.028c.015 0 .04-.005.076-.017a.185.185 0 0 0 .076-.04l.664-.676a.714.714 0 0 1 .489-.187c.131 0 .236.023.314.07h.011l2.247 1.328a.591.591 0 0 1 .289.386z"/></svg>