<svg xmlns="http://www.w3.org/2000/svg" width="8" height="10.515" viewBox="219.429 0 8 10.515"><path d="M223.43 5.143c1.168 0 2.118-1.15 2.118-2.571 0-1.421-.313-2.572-2.118-2.572s-2.118 1.15-2.118 2.572c.001 1.421.95 2.571 2.118 2.571zm-3.998 3.926c0-.087 0-.027 0 0zm7.997.067c0-.025 0-.166 0 0zm-.006-.172c-.039-2.473-.364-3.178-2.836-3.626 0 0-.349.444-1.16.444s-1.16-.444-1.16-.444c-2.445.441-2.788 1.136-2.833 3.545-.003.195-.006.207-.006.183v.261s.589 1.187 3.999 1.187 3.999-1.187 3.999-1.187v-.192c.003.015 0-.011-.003-.171z"/></svg>