<svg xmlns="http://www.w3.org/2000/svg" width="60" height="56.067" viewBox="5.479 3854.795 60 56.067"><path d="M65.479 3871.036v5.894a.532.532 0 0 1-.535.534h-2.412v19.117a2.495 2.495 0 1 1-4.99 0v-11.786c0-.784-.642-1.426-1.438-1.426H54.68v1.426a.532.532 0 0 1-.535.534h-3.398v21.078c0 2.459-2.008 4.456-4.468 4.456H9.947a4.478 4.478 0 0 1-4.467-4.468v-47.145c0-2.459 2.008-4.455 4.467-4.455h36.345a4.477 4.477 0 0 1 4.467 4.467v21.077h3.398c.297 0 .535.238.535.535v1.426h1.438a2.495 2.495 0 0 1 2.495 2.495v11.786c0 .784.642 1.426 1.426 1.426s1.438-.642 1.438-1.426v-19.117h-2.412a.532.532 0 0 1-.535-.534v-5.894c0-.297.237-.534.535-.534h.451v-2.412c0-.297.238-.535.535-.535.297 0 .535.238.535.535v2.412h2.863v-2.412c0-.297.238-.535.535-.535.297 0 .535.238.535.535v2.412h.452c.259 0 .496.249.496.534zm-1.069 5.359v-4.823h-4.824v4.823h4.824zm-10.8 7.865v-2.863h-2.863v2.863h2.863zm-3.932 22.135v-47.145a3.397 3.397 0 0 0-3.398-3.397H9.947a3.404 3.404 0 0 0-3.398 3.397v47.145a3.398 3.398 0 0 0 3.398 3.398h36.345a3.395 3.395 0 0 0 3.386-3.398z"/><path d="M46.814 3859.25v47.145a.532.532 0 0 1-.535.535H9.947a.533.533 0 0 1-.535-.535v-32.34c0-.297.238-.535.535-.535s.535.237.535.535v31.818h35.275v-46.087H10.47v10.705a.533.533 0 0 1-.535.535.532.532 0 0 1-.535-.535v-11.24c0-.297.237-.534.535-.534h36.344a.53.53 0 0 1 .535.533z"/><path fill="#2AC9B9" d="M42.894 3900.502v1.96a.533.533 0 0 1-.535.535h-1.96a.533.533 0 0 1-.535-.535c0-.297.237-.534.535-.534h1.426v-1.438c0-.297.237-.535.535-.535.296 0 .534.262.534.547zm0-37.319v1.961a.532.532 0 0 1-.535.534.532.532 0 0 1-.535-.534v-1.426h-1.426a.533.533 0 0 1-.535-.535c0-.297.237-.534.535-.534h1.96a.54.54 0 0 1 .536.534z"/><path fill="#EE4165" d="M36.953 3882.288c.297 0 .535.237.535.534a.532.532 0 0 1-.535.535h-2.946a.533.533 0 0 1-.535-.535c0-.297.237-.534.535-.534h2.946zm-2.056 6.784c0 .143-.06.273-.155.38-.095.107-.237.154-.38.154s-.273-.059-.38-.154l-2.079-2.079a.517.517 0 0 1 0-.749.502.502 0 0 1 .38-.155c.143 0 .273.06.38.155l2.079 2.079a.522.522 0 0 1 .155.369zm-.154-12.879c.107.095.155.238.155.38s-.06.273-.155.38l-2.079 2.079a.52.52 0 0 1-.38.155.574.574 0 0 1-.38-.155c-.095-.095-.154-.237-.154-.38s.059-.273.154-.38l2.079-2.079c.095-.107.238-.155.38-.155s.273.06.38.155zm-6.63 3.148c1.913 0 3.481 1.556 3.481 3.481s-1.556 3.481-3.481 3.481-3.481-1.557-3.481-3.481a3.494 3.494 0 0 1 3.481-3.481zm2.412 3.481a2.414 2.414 0 0 0-2.412-2.412 2.414 2.414 0 0 0-2.412 2.412 2.413 2.413 0 0 0 2.412 2.412 2.413 2.413 0 0 0 2.412-2.412zm-1.877 5.894v2.946a.533.533 0 0 1-.535.535.533.533 0 0 1-.535-.535v-2.946c0-.297.237-.535.535-.535a.54.54 0 0 1 .535.535zm0-14.733v2.947a.532.532 0 0 1-.535.534.532.532 0 0 1-.535-.534v-2.947c0-.297.237-.535.535-.535a.54.54 0 0 1 .535.535zm-4.325 4.301a.516.516 0 0 1 0 .748c-.107.107-.238.155-.38.155s-.273-.06-.38-.155l-2.079-2.079a.539.539 0 0 1 0-.749c.095-.107.238-.154.38-.154s.273.059.38.154l2.079 2.08zm0 8.328a.573.573 0 0 1 .154.381c0 .142-.06.273-.154.38l-2.08 2.079c-.095.107-.237.154-.38.154s-.273-.059-.38-.154a.5.5 0 0 1-.154-.38.57.57 0 0 1 .154-.38l2.079-2.08c.107-.106.238-.154.38-.154s.286.06.381.154zm-2.103-4.324c.297 0 .535.237.535.534a.533.533 0 0 1-.535.535h-2.947a.533.533 0 0 1-.535-.535c0-.297.238-.534.535-.534h2.947z"/><path fill="#2AC9B9" d="M15.84 3862.648c.297 0 .535.237.535.534a.533.533 0 0 1-.535.535h-1.438v1.438c0 .297-.238.535-.535.535s-.535-.238-.535-.535v-1.973c0-.297.238-.534.535-.534h1.973zm0 39.291c.297 0 .535.237.535.534a.533.533 0 0 1-.535.535h-1.972a.533.533 0 0 1-.535-.535v-1.96c0-.297.238-.535.535-.535s.535.238.535.535v1.438h1.438v-.012z"/></svg>