<svg xmlns="http://www.w3.org/2000/svg" width="19" height="19" viewBox="0 3800 19 19"><path d="M11.504 3807.051c-.204 0-.371.167-.371.371s.167.371.371.371.371-.167.371-.371-.167-.371-.371-.371z"/><path d="M18.566 3816.465l-4.954-4.954a7.356 7.356 0 0 0 1.232-4.089c0-4.093-3.329-7.422-7.422-7.422S0 3803.329 0 3807.422s3.329 7.422 7.422 7.422c1.47 0 2.876-.427 4.089-1.232l1.37 1.37 3.584 3.584a1.483 1.483 0 0 0 2.534-1.05 1.482 1.482 0 0 0-.433-1.051zm-7.229-3.636a6.614 6.614 0 0 1-3.915 1.273 6.685 6.685 0 0 1-6.68-6.68c0-3.685 2.995-6.68 6.68-6.68s6.68 2.995 6.68 6.68a6.614 6.614 0 0 1-1.273 3.915 6.642 6.642 0 0 1-1.492 1.492zm.779.337a7.339 7.339 0 0 0 1.05-1.05l1.054 1.054a8.9 8.9 0 0 1-1.05 1.05l-1.054-1.054zm5.923 4.873a.737.737 0 0 1-1.046 0l-3.295-3.296a9.55 9.55 0 0 0 1.05-1.05l3.295 3.295a.738.738 0 0 1-.004 1.051z"/><path d="M7.422 3801.484a5.946 5.946 0 0 0-5.938 5.938c0 3.273 2.665 5.938 5.938 5.938s5.938-2.665 5.938-5.938a5.946 5.946 0 0 0-5.938-5.938zm0 11.133a5.2 5.2 0 0 1-5.195-5.195c0-2.865 2.331-5.195 5.195-5.195s5.195 2.33 5.195 5.195a5.2 5.2 0 0 1-5.195 5.195z"/><path d="M11.582 3805.83a4.432 4.432 0 0 0-1.611-2.056 4.414 4.414 0 0 0-2.549-.805c-.204 0-.371.167-.371.371s.167.371.371.371c1.525 0 2.917.957 3.466 2.382a.369.369 0 0 0 .479.212.368.368 0 0 0 .215-.475z"/></svg>