<svg xmlns="http://www.w3.org/2000/svg" width="14" height="11.693" viewBox="100.023 82.422 14 11.693"><path d="M104.505 87.722a3.713 3.713 0 0 0-1.025-.15c-.517 0-.949.117-1.285.262.323-1.184 1.099-3.224 2.644-3.454a.374.374 0 0 0 .301-.265l.336-1.206a.381.381 0 0 0-.046-.301.37.37 0 0 0-.257-.162 2.5 2.5 0 0 0-.345-.024c-1.857 0-3.694 1.936-4.468 4.712-.457 1.627-.591 4.072.53 5.614.626.861 1.542 1.321 2.721 1.368h.014a3.264 3.264 0 0 0 3.134-2.382 3.252 3.252 0 0 0-2.254-4.012zm9.098 1.536a3.28 3.28 0 0 0-1.958-1.54 3.718 3.718 0 0 0-1.025-.15c-.517 0-.952.118-1.285.263.322-1.184 1.099-3.224 2.644-3.454a.373.373 0 0 0 .301-.265l.339-1.203a.381.381 0 0 0-.046-.301.373.373 0 0 0-.257-.162 2.49 2.49 0 0 0-.345-.024c-1.856 0-3.694 1.936-4.471 4.712-.454 1.627-.588 4.074.533 5.614.626.861 1.542 1.321 2.721 1.368h.014a3.264 3.264 0 0 0 3.134-2.382 3.24 3.24 0 0 0-.299-2.476z"/></svg>