<svg xmlns="http://www.w3.org/2000/svg" width="30" height="30" viewBox="100 0 30 30"><path fill="#FFF" d="M118.164 11.133c-.322 0-.586.264-.586.586s.264.586.586.586.586-.264.586-.586-.264-.586-.586-.586z"/><path fill="#FFF" d="M129.314 25.998l-7.822-7.822a11.617 11.617 0 0 0 1.945-6.457C123.438 5.256 118.182 0 111.719 0S100 5.256 100 11.719s5.256 11.719 11.719 11.719c2.32 0 4.541-.674 6.457-1.945l2.162 2.162 5.66 5.66a2.322 2.322 0 0 0 1.658.686 2.343 2.343 0 0 0 1.658-4.003zM117.9 20.256a10.445 10.445 0 0 1-6.182 2.01c-5.818 0-10.547-4.729-10.547-10.547S105.9 1.172 111.719 1.172s10.547 4.729 10.547 10.547c0 2.238-.697 4.377-2.01 6.182a10.425 10.425 0 0 1-2.356 2.355zm1.231.533a11.704 11.704 0 0 0 1.658-1.658l1.664 1.664a14.343 14.343 0 0 1-1.658 1.658l-1.664-1.664zm9.351 7.693a1.162 1.162 0 0 1-1.652 0l-5.203-5.203a15.358 15.358 0 0 0 1.658-1.658l5.203 5.203a1.162 1.162 0 0 1-.006 1.658z"/><path fill="#FFF" d="M111.719 2.344c-5.168 0-9.375 4.207-9.375 9.375s4.207 9.375 9.375 9.375 9.375-4.207 9.375-9.375-4.207-9.375-9.375-9.375zm0 17.578c-4.523 0-8.203-3.68-8.203-8.203s3.68-8.203 8.203-8.203 8.203 3.68 8.203 8.203-3.68 8.203-8.203 8.203z"/><path fill="#FFF" d="M118.287 9.205a7.002 7.002 0 0 0-2.543-3.246 6.97 6.97 0 0 0-4.025-1.271c-.322 0-.586.264-.586.586s.264.586.586.586a5.903 5.903 0 0 1 5.473 3.762.581.581 0 0 0 .756.334.583.583 0 0 0 .339-.751z"/></svg>