<svg xmlns="http://www.w3.org/2000/svg" width="110" height="102.79" viewBox="5.479 3854.795 110 102.79"><path d="M115.479 3884.571v10.804c0 .545-.436.98-.98.98h-4.422v35.047a4.574 4.574 0 1 1-9.148 0v-21.608a2.626 2.626 0 0 0-2.636-2.614H95.68v2.614c0 .544-.436.98-.98.98h-6.23v38.642c0 4.509-3.681 8.168-8.19 8.168H13.67c-4.509 0-8.19-3.681-8.19-8.19v-86.432c0-4.509 3.681-8.168 8.19-8.168h66.632c4.509 0 8.19 3.681 8.19 8.19v38.642h6.23c.544 0 .98.436.98.98v2.614h2.636a4.573 4.573 0 0 1 4.574 4.574v21.608a2.621 2.621 0 0 0 2.614 2.614c1.438 0 2.636-1.176 2.636-2.614v-35.047h-4.422a.976.976 0 0 1-.98-.98v-10.804c0-.545.436-.98.98-.98h.828v-4.422c0-.544.436-.98.98-.98s.98.436.98.98v4.422h5.25v-4.422c0-.544.436-.98.98-.98s.98.436.98.98v4.422h.828c.478 0 .913.457.913.98zm-1.96 9.824v-8.844h-8.844v8.844h8.844zm-19.8 14.419v-5.249h-5.25v5.249h5.25zm-7.21 40.581v-86.432a6.228 6.228 0 0 0-6.23-6.229h-66.61c-3.441 0-6.229 2.81-6.229 6.229v86.432a6.228 6.228 0 0 0 6.229 6.23h66.632c3.42 0 6.208-2.789 6.208-6.23z"/><path d="M81.26 3862.963v86.432c0 .545-.436.98-.98.98H13.67a.976.976 0 0 1-.98-.98v-59.291c0-.544.436-.98.98-.98.545 0 .98.436.98.98v58.333h64.671v-84.493H14.628v19.626c0 .544-.436.98-.98.98s-.98-.436-.98-.98v-20.606c0-.544.436-.98.98-.98h66.631a.975.975 0 0 1 .981.979z"/><path fill="#2AC9B9" d="M74.072 3938.591v3.594c0 .544-.436.98-.98.98h-3.594c-.544 0-.98-.436-.98-.98s.436-.98.98-.98h2.614v-2.636c0-.545.436-.98.98-.98s.98.479.98 1.002zm0-68.418v3.594c0 .544-.436.98-.98.98s-.98-.436-.98-.98v-2.614h-2.614a.976.976 0 0 1-.98-.98c0-.544.436-.98.98-.98h3.594a.99.99 0 0 1 .98.98z"/><path fill="#EE4165" d="M63.181 3905.199c.544 0 .98.436.98.98 0 .545-.436.98-.98.98h-5.402a.976.976 0 0 1-.98-.98c0-.544.436-.98.98-.98h5.402zm-3.769 12.438c0 .261-.109.501-.283.697s-.436.283-.697.283c-.262 0-.501-.109-.697-.283l-3.812-3.812c-.392-.392-.392-1.002 0-1.372.174-.196.436-.283.697-.283s.501.109.697.283l3.812 3.812a.954.954 0 0 1 .283.675zm-.283-23.613c.196.174.283.436.283.697 0 .261-.109.501-.283.697l-3.812 3.812c-.196.196-.436.283-.697.283s-.501-.109-.697-.283a1.009 1.009 0 0 1-.283-.697c0-.261.109-.501.283-.697l3.812-3.812c.174-.196.436-.283.697-.283.261 0 .501.11.697.283zm-12.154 5.773c3.507 0 6.382 2.854 6.382 6.382 0 3.529-2.854 6.383-6.382 6.383s-6.382-2.854-6.382-6.383c-.001-3.507 2.875-6.382 6.382-6.382zm4.421 6.382a4.425 4.425 0 0 0-4.422-4.421 4.425 4.425 0 0 0-4.422 4.421 4.425 4.425 0 0 0 4.422 4.422 4.425 4.425 0 0 0 4.422-4.422zm-3.441 10.804v5.402c0 .545-.436.98-.98.98s-.98-.436-.98-.98v-5.402c0-.544.436-.98.98-.98s.98.457.98.98zm0-27.01v5.402c0 .545-.436.98-.98.98s-.98-.436-.98-.98v-5.402c0-.544.436-.98.98-.98s.98.457.98.98zm-7.929 7.885c.392.392.392 1.002 0 1.372a.954.954 0 0 1-.697.283c-.262 0-.501-.109-.697-.283l-3.812-3.812c-.371-.393-.371-1.002 0-1.373.174-.196.436-.283.697-.283s.501.109.697.283l3.812 3.813zm0 15.269c.174.196.283.436.283.697s-.109.501-.283.697l-3.812 3.812c-.174.196-.436.283-.697.283s-.501-.109-.697-.283c-.196-.174-.283-.436-.283-.697 0-.262.109-.501.283-.697l3.812-3.812a.954.954 0 0 1 .697-.283c.261.001.523.109.697.283zm-3.856-7.928c.545 0 .98.436.98.98 0 .545-.436.98-.98.98h-5.402a.976.976 0 0 1-.98-.98c0-.544.436-.98.98-.98h5.402z"/><path fill="#2AC9B9" d="M24.474 3869.193c.544 0 .98.436.98.98 0 .545-.436.98-.98.98h-2.636v2.636c0 .544-.436.98-.98.98a.976.976 0 0 1-.98-.98v-3.616c0-.544.436-.98.98-.98h3.616zm0 72.034c.544 0 .98.436.98.98s-.436.98-.98.98h-3.616a.976.976 0 0 1-.98-.98v-3.594c0-.544.436-.98.98-.98s.98.436.98.98v2.635h2.636v-.021z"/></svg>