<svg xmlns="http://www.w3.org/2000/svg" width="9" height="16.656" viewBox="-882.434 -423.042 9 16.656"><path d="M-873.766-423.039l-2.161-.003c-2.427 0-3.996 1.61-3.996 4.1v1.891h-2.173a.338.338 0 0 0-.338.338v2.74c0 .188.153.338.338.338h2.173v6.911c0 .189.153.338.338.338h2.834a.338.338 0 0 0 .338-.338v-6.908h2.542a.338.338 0 0 0 .338-.338v-2.74a.34.34 0 0 0-.101-.241.337.337 0 0 0-.241-.101h-2.541v-1.601c0-.771.182-1.162 1.188-1.162h1.455a.338.338 0 0 0 .338-.338v-2.547a.33.33 0 0 0-.331-.339z"/></svg>