<svg xmlns="http://www.w3.org/2000/svg" width="18" height="12.375" viewBox="100 156.25 18 12.375"><path d="M117.233 157.442c-.488-.869-1.02-1.027-2.095-1.09-1.079-.07-3.79-.102-6.135-.102-2.352 0-5.063.032-6.142.102-1.076.063-1.607.221-2.099 1.09-.502.868-.763 2.362-.763 4.992v.009c0 2.619.26 4.124.763 4.982.492.868 1.023 1.026 2.099 1.1 1.079.063 3.79.099 6.142.099 2.349 0 5.059-.039 6.138-.099 1.08-.074 1.61-.232 2.096-1.1.506-.858.763-2.363.763-4.982v-.01c0-2.629-.257-4.123-.767-4.991zm-10.483 8.371v-6.75l5.625 3.375-5.625 3.375z"/></svg>