<svg xmlns="http://www.w3.org/2000/svg" width="16" height="16.003" viewBox="252.175 110.362 16 16.003"><path d="M256.985 125.674c-3.527-1.474-5.824-5.675-4.363-9.941 1.444-4.221 6.118-6.431 10.325-4.869a7.958 7.958 0 0 1 4.671 10.397c-1.693 4.321-6.234 5.85-9.638 4.772.255-.628.544-1.249.756-1.894.213-.648.349-1.322.509-1.946.137.116.276.238.42.353.752.595 1.604.652 2.495.438.947-.228 1.696-.765 2.25-1.555.938-1.335 1.269-2.847 1.042-4.437-.234-1.645-1.208-2.834-2.734-3.433-2.299-.903-4.479-.599-6.368 1.056-1.453 1.272-1.94 3.43-1.242 5.109.242.582.625 1.039 1.204 1.313.293.139.418.083.503-.224.006-.023.014-.045.022-.067.163-.429.125-.781-.165-1.195-.527-.754-.434-1.627-.179-2.464a3.724 3.724 0 0 1 3.563-2.661c.445-.004.904.034 1.335.14 1.283.313 2.111 1.305 2.194 2.62.067 1.055-.098 2.08-.557 3.043-.227.477-.527.901-.973 1.201-.419.282-.877.396-1.374.266-.685-.179-1.074-.804-.901-1.489.18-.711.412-1.408.588-2.12.074-.301.113-.628.083-.934-.083-.835-.872-1.224-1.609-.817-.517.286-.765.763-.881 1.315-.119.569-.061 1.129.124 1.681a.717.717 0 0 1 .017.362c-.335 1.46-.693 2.916-1.011 4.38-.092.428-.075.879-.106 1.319-.005.084 0 .169 0 .281z"/></svg>